<svg xmlns="http://www.w3.org/2000/svg" width="160" height="160" fill="none"><path stroke="#595959" stroke-linecap="round" stroke-miterlimit="10" stroke-width="1.5" d="M80 5c41.42 0 75 33.58 75 75"/><path stroke="url(#a)" stroke-linecap="round" stroke-miterlimit="10" stroke-width="1.5" d="M80 5c41.42 0 75 33.58 75 75"/><path stroke="#595959" stroke-linecap="round" stroke-miterlimit="10" stroke-width="1.5" d="M5 80C5 38.58 38.58 5 80 5"/><path stroke="url(#b)" stroke-linecap="round" stroke-miterlimit="10" stroke-width="1.5" d="M5 80C5 38.58 38.58 5 80 5"/><path stroke="#595959" stroke-linecap="round" stroke-miterlimit="10" stroke-width="1.5" d="M80 155c-41.42 0-75-33.58-75-75"/><path stroke="url(#c)" stroke-linecap="round" stroke-miterlimit="10" stroke-width="1.5" d="M80 155c-41.42 0-75-33.58-75-75"/><path stroke="#595959" stroke-linecap="round" stroke-miterlimit="10" stroke-width="1.5" d="M80 155c40.482 0 73.476-32.077 74.949-72.2"/><path stroke="url(#d)" stroke-linecap="round" stroke-miterlimit="10" stroke-width="1.5" d="M80 155c40.482 0 73.476-32.077 74.949-72.2"/><path stroke="#595959" stroke-miterlimit="10" d="M92.163 79.884c-.587.518-.881 1.306-.707 2.07l6.375 27.9a2 2 0 0 1-1.95 2.446H64.118a2 2 0 0 1-1.95-2.446l6.376-27.9c.174-.764-.12-1.552-.707-2.07A18.353 18.353 0 0 1 61.61 66.09c0-10.15 8.24-18.39 18.39-18.39s18.39 8.24 18.39 18.39a18.353 18.353 0 0 1-6.227 13.794Z"/><defs><radialGradient id="a" cx="0" cy="0" r="1" gradientTransform="matrix(75.0018 74.9999 -114030 113927 80 5)" gradientUnits="userSpaceOnUse"><stop offset=".25" stop-color="#1B1B1B"/><stop offset="1" stop-color="#595959"/></radialGradient><radialGradient id="b" cx="0" cy="0" r="1" gradientTransform="matrix(-75 75 -113924 -114030 80 5)" gradientUnits="userSpaceOnUse"><stop stop-color="#595959"/><stop offset=".75" stop-color="#1B1B1B"/></radialGradient><radialGradient id="c" cx="0" cy="0" r="1" gradientTransform="matrix(75.0018 74.9999 -114030 113927 5 80)" gradientUnits="userSpaceOnUse"><stop stop-color="#595959"/><stop offset=".75" stop-color="#1B1B1B"/></radialGradient><radialGradient id="d" cx="0" cy="0" r="1" gradientTransform="matrix(-75 75 -113924 -114030 155.001 80.001)" gradientUnits="userSpaceOnUse"><stop offset=".25" stop-color="#1B1B1B"/><stop offset="1" stop-color="#595959"/></radialGradient></defs></svg>