<svg xmlns="http://www.w3.org/2000/svg" width="160" height="160" fill="none"><path stroke="#595959" stroke-miterlimit="10" d="M80 25V5"/><path stroke="url(#a)" stroke-miterlimit="10" d="M80 25V5"/><path stroke="#595959" stroke-miterlimit="10" d="M47.67 35.5 35.92 19.32"/><path stroke="url(#b)" stroke-miterlimit="10" d="M47.67 35.5 35.92 19.32"/><path stroke="#595959" stroke-miterlimit="10" d="M27.69 63 8.67 56.82"/><path stroke="url(#c)" stroke-miterlimit="10" d="M27.69 63 8.67 56.82"/><path stroke="#595959" stroke-miterlimit="10" d="m27.69 97-19.02 6.18"/><path stroke="url(#d)" stroke-miterlimit="10" d="m27.69 97-19.02 6.18"/><path stroke="#595959" stroke-miterlimit="10" d="m47.67 124.5-11.75 16.18"/><path stroke="url(#e)" stroke-miterlimit="10" d="m47.67 124.5-11.75 16.18"/><path stroke="#595959" stroke-miterlimit="10" d="M80 135v20"/><path stroke="url(#f)" stroke-miterlimit="10" d="M80 135v20"/><path stroke="#595959" stroke-miterlimit="10" d="m112.33 124.5 11.75 16.18"/><path stroke="url(#g)" stroke-miterlimit="10" d="m112.33 124.5 11.75 16.18"/><path stroke="#595959" stroke-miterlimit="10" d="m132.31 97 19.02 6.18"/><path stroke="url(#h)" stroke-miterlimit="10" d="m132.31 97 19.02 6.18"/><path stroke="#595959" stroke-miterlimit="10" d="m132.31 63 19.02-6.18"/><path stroke="url(#i)" stroke-miterlimit="10" d="m132.31 63 19.02-6.18"/><path stroke="#595959" stroke-miterlimit="10" d="m112.33 35.5 11.75-16.18"/><path stroke="url(#j)" stroke-miterlimit="10" d="m112.33 35.5 11.75-16.18"/><path stroke="#595959" stroke-miterlimit="10" stroke-width=".5" d="M80 29.37v6.13m-15.65-3.65 1.9 5.83m-16.01 1.36L53.85 44m-14.81 6.24L44 53.85m-12.15 10.5 5.83 1.9M29.37 80h6.13m-3.65 15.65 5.83-1.9m1.36 16.01 4.96-3.61m6.24 14.81 3.61-4.96m10.5 12.15 1.9-5.83M80 130.63v-6.13m15.65 3.65-1.9-5.83m16.01-1.36-3.61-4.96m14.81-6.24-4.96-3.61m12.15-10.5-5.83-1.9M130.63 80h-6.13m3.65-15.65-5.83 1.9m-1.36-16.01L116 53.85m-6.24-14.81L106.15 44m-10.5-12.15-1.9 5.83m-21.67-7.69.48 3.03m-15.55 1.87 1.4 2.73M44.2 44.2l2.17 2.17M34.89 57.01l2.73 1.4m-7.63 13.67 3.03.48m-3.03 15.36 3.03-.48m1.87 15.55 2.73-1.4m6.58 14.21 2.17-2.17m10.64 11.48 1.4-2.73m13.67 7.63.48-3.03m15.36 3.03-.48-3.03m15.55-1.87-1.4-2.73m14.21-6.58-2.17-2.17m11.48-10.64-2.73-1.4m7.63-13.67-3.03-.48m3.03-15.36-3.03.48m-1.87-15.55-2.73 1.4M115.8 44.2l-2.17 2.17m-10.64-11.48-1.4 2.73m-13.67-7.63-.48 3.03M80 100c11.046 0 20-8.954 20-20s-8.954-20-20-20-20 8.954-20 20 8.954 20 20 20Z"/><path stroke="#595959" stroke-miterlimit="10" d="M80 135c30.376 0 55-24.624 55-55s-24.624-55-55-55-55 24.624-55 55 24.624 55 55 55Z"/><path stroke="#595959" stroke-miterlimit="10" d="M80 155c41.421 0 75-33.579 75-75S121.421 5 80 5 5 38.579 5 80s33.579 75 75 75Z"/><defs><linearGradient id="a" x1="79.981" x2="77.91" y1="5" y2="5.224" gradientUnits="userSpaceOnUse"><stop stop-color="#595959"/><stop offset=".75" stop-color="#1B1B1B"/><stop offset="1" stop-color="#1B1B1B"/></linearGradient><linearGradient id="b" x1="48" x2="47.307" y1="36" y2="18.551" gradientUnits="userSpaceOnUse"><stop stop-color="#1B1B1B"/><stop offset=".25" stop-color="#1B1B1B"/><stop offset="1" stop-color="#595959"/></linearGradient><linearGradient id="c" x1="28" x2="10.331" y1="63" y2="54.298" gradientUnits="userSpaceOnUse"><stop stop-color="#1B1B1B"/><stop offset=".25" stop-color="#1B1B1B"/><stop offset="1" stop-color="#595959"/></linearGradient><linearGradient id="d" x1="28" x2="8.201" y1="97" y2="100.065" gradientUnits="userSpaceOnUse"><stop stop-color="#1B1B1B"/><stop offset=".25" stop-color="#1B1B1B"/><stop offset="1" stop-color="#595959"/></linearGradient><linearGradient id="e" x1="48" x2="32.442" y1="125" y2="130.367" gradientUnits="userSpaceOnUse"><stop stop-color="#1B1B1B"/><stop offset=".25" stop-color="#1B1B1B"/><stop offset="1" stop-color="#595959"/></linearGradient><linearGradient id="f" x1="80" x2="77.956" y1="135.255" y2="135.473" gradientUnits="userSpaceOnUse"><stop stop-color="#1B1B1B"/><stop offset=".25" stop-color="#1B1B1B"/><stop offset="1" stop-color="#595959"/></linearGradient><linearGradient id="g" x1="112.33" x2="113.113" y1="124.707" y2="141.507" gradientUnits="userSpaceOnUse"><stop stop-color="#1B1B1B"/><stop offset=".25" stop-color="#1B1B1B"/><stop offset="1" stop-color="#595959"/></linearGradient><linearGradient id="h" x1="151" x2="133.331" y1="103" y2="94.298" gradientUnits="userSpaceOnUse"><stop stop-color="#595959"/><stop offset=".75" stop-color="#1B1B1B"/><stop offset="1" stop-color="#1B1B1B"/></linearGradient><linearGradient id="i" x1="151" x2="131.854" y1="57" y2="59.984" gradientUnits="userSpaceOnUse"><stop stop-color="#595959"/><stop offset=".75" stop-color="#1B1B1B"/><stop offset="1" stop-color="#1B1B1B"/></linearGradient><linearGradient id="j" x1="124" x2="108.356" y1="19" y2="25.132" gradientUnits="userSpaceOnUse"><stop stop-color="#595959"/><stop offset=".75" stop-color="#1B1B1B"/><stop offset="1" stop-color="#1B1B1B"/></linearGradient></defs></svg>