<svg xmlns="http://www.w3.org/2000/svg" width="158" height="158" fill="none"><circle cx="79.5" cy="79.5" r="63" stroke="#595959"/><path stroke="#595959" stroke-linecap="round" stroke-miterlimit="10" d="M78 78 50 50m17 70 12-39"/><path stroke="#595959" stroke-linecap="round" stroke-miterlimit="10" stroke-width="2" d="m81.5 78.5 27.93-15.9"/><path fill="url(#a)" d="M80 5.25a.75.75 0 0 0 0 1.5v-1.5ZM6.53 79.47a.75.75 0 0 0-1.06 0L.697 84.243a.75.75 0 0 0 1.06 1.06L6 81.061l4.243 4.242a.75.75 0 0 0 1.06-1.06L6.53 79.47ZM80 6v.75c40.452 0 73.25 32.798 73.25 73.25h1.5c0-41.28-33.47-74.75-74.75-74.75V6Zm74 74h-.75c0 40.452-32.798 73.25-73.25 73.25v1.5c41.28 0 74.75-33.47 74.75-74.75H154Zm-74 74v-.75c-40.452 0-73.25-32.798-73.25-73.25h-1.5c0 41.28 33.47 74.75 74.75 74.75V154Z"/><circle cx="79.5" cy="79.5" r="3" fill="#1B1B1B" stroke="#595959"/><defs><radialGradient id="a" cx="0" cy="0" r="1" gradientTransform="rotate(130.365 53.427 9.514) scale(137.849 131.337)" gradientUnits="userSpaceOnUse"><stop stop-color="#1B1B1B"/><stop offset=".503" stop-color="#1B1B1B" stop-opacity=".4"/><stop offset="1" stop-color="#595959"/></radialGradient></defs></svg>