<svg width="569" height="543" viewBox="0 0 569 543" fill="none" xmlns="http://www.w3.org/2000/svg">
<g clip-path="url(#clip0_392_2473)">
<path d="M0 0H565C567.209 0 569 1.79086 569 4V539C569 541.209 567.209 543 565 543H0V0Z" fill="#CED8D9"></path>
<rect x="48" y="48" width="473" height="605" rx="16" fill="#FAFAF9"></rect>
<path d="M79.0322 407.689H489.968C495.68 407.689 500.311 412.32 500.311 418.032V449.968C500.311 455.68 495.68 460.311 489.968 460.311H79.0322C73.3203 460.311 68.6895 455.68 68.6895 449.968V418.032C68.6895 412.32 73.3203 407.689 79.0322 407.689Z" fill="white"></path>
<path d="M79.0322 407.689H489.968C495.68 407.689 500.311 412.32 500.311 418.032V449.968C500.311 455.68 495.68 460.311 489.968 460.311H79.0322C73.3203 460.311 68.6895 455.68 68.6895 449.968V418.032C68.6895 412.32 73.3203 407.689 79.0322 407.689Z" stroke="#ECEBE9" stroke-width="1.37898"></path>
<circle cx="91.4428" cy="434" r="6.8949" fill="#EF4444"></circle>
<path d="M110.882 426.61H113.87L119.792 436.726C119.768 436.222 119.756 435.646 119.756 434.998V426.61H121.754V439.21H119.072L112.826 428.554C112.85 429.046 112.862 429.598 112.862 430.21V439.21H110.882V426.61ZM128.227 439.498C127.375 439.498 126.613 439.312 125.941 438.94C125.281 438.556 124.765 438.016 124.393 437.32C124.033 436.612 123.853 435.79 123.853 434.854C123.853 433.942 124.039 433.132 124.411 432.424C124.783 431.716 125.299 431.17 125.959 430.786C126.619 430.39 127.375 430.192 128.227 430.192C129.067 430.192 129.817 430.39 130.477 430.786C131.149 431.17 131.671 431.716 132.043 432.424C132.427 433.132 132.619 433.942 132.619 434.854C132.619 435.79 132.427 436.612 132.043 437.32C131.671 438.016 131.149 438.556 130.477 438.94C129.817 439.312 129.067 439.498 128.227 439.498ZM128.227 438.04C128.731 438.04 129.169 437.914 129.541 437.662C129.913 437.398 130.201 437.026 130.405 436.546C130.609 436.066 130.711 435.502 130.711 434.854C130.711 433.87 130.483 433.096 130.027 432.532C129.571 431.956 128.971 431.668 128.227 431.668C127.735 431.668 127.303 431.8 126.931 432.064C126.559 432.316 126.271 432.682 126.067 433.162C125.863 433.642 125.761 434.206 125.761 434.854C125.761 435.838 125.983 436.618 126.427 437.194C126.871 437.758 127.471 438.04 128.227 438.04ZM137.868 439.354C137.04 439.354 136.386 439.138 135.906 438.706C135.438 438.262 135.204 437.572 135.204 436.636V431.992H133.404V430.48H135.204V427.474H137.076V430.48H139.056V431.992H137.076V436.402C137.076 436.882 137.184 437.236 137.4 437.464C137.616 437.68 137.94 437.788 138.372 437.788C138.576 437.788 138.792 437.77 139.02 437.734V439.228C138.888 439.264 138.714 439.294 138.498 439.318C138.294 439.342 138.084 439.354 137.868 439.354ZM147.338 439.498C146.81 439.498 146.312 439.39 145.844 439.174C145.388 438.958 145.022 438.646 144.746 438.238C144.47 437.83 144.332 437.356 144.332 436.816C144.332 435.964 144.614 435.322 145.178 434.89C145.754 434.446 146.522 434.152 147.482 434.008L149.048 433.792C149.384 433.744 149.618 433.654 149.75 433.522C149.894 433.39 149.966 433.204 149.966 432.964C149.966 432.556 149.816 432.232 149.516 431.992C149.228 431.74 148.844 431.614 148.364 431.614C147.788 431.614 147.332 431.764 146.996 432.064C146.672 432.352 146.492 432.748 146.456 433.252H144.566C144.602 432.688 144.77 432.172 145.07 431.704C145.382 431.236 145.808 430.87 146.348 430.606C146.888 430.33 147.518 430.192 148.238 430.192C149.03 430.192 149.69 430.336 150.218 430.624C150.758 430.9 151.16 431.308 151.424 431.848C151.688 432.376 151.82 433.018 151.82 433.774V439.21H150.056V438.814C150.056 438.562 150.074 438.298 150.11 438.022C149.87 438.49 149.516 438.856 149.048 439.12C148.58 439.372 148.01 439.498 147.338 439.498ZM147.734 438.094C148.154 438.094 148.538 438.004 148.886 437.824C149.234 437.632 149.504 437.368 149.696 437.032C149.9 436.696 150.002 436.312 150.002 435.88V434.746C149.93 434.83 149.816 434.902 149.66 434.962C149.504 435.022 149.288 435.076 149.012 435.124L148.004 435.322C147.452 435.43 147.02 435.598 146.708 435.826C146.396 436.054 146.24 436.372 146.24 436.78C146.24 437.176 146.384 437.494 146.672 437.734C146.96 437.974 147.314 438.094 147.734 438.094ZM158.004 439.498C157.14 439.498 156.378 439.318 155.718 438.958C155.058 438.598 154.542 438.07 154.17 437.374C153.81 436.666 153.63 435.82 153.63 434.836C153.63 433.912 153.822 433.102 154.206 432.406C154.602 431.698 155.136 431.152 155.808 430.768C156.492 430.384 157.248 430.192 158.076 430.192C158.832 430.192 159.498 430.336 160.074 430.624C160.65 430.9 161.106 431.296 161.442 431.812C161.778 432.328 161.982 432.922 162.054 433.594H160.146C160.086 433.03 159.876 432.568 159.516 432.208C159.156 431.848 158.67 431.668 158.058 431.668C157.578 431.668 157.146 431.8 156.762 432.064C156.378 432.328 156.078 432.7 155.862 433.18C155.646 433.66 155.538 434.218 155.538 434.854C155.538 435.478 155.64 436.036 155.844 436.528C156.06 437.008 156.354 437.38 156.726 437.644C157.11 437.908 157.554 438.04 158.058 438.04C158.694 438.04 159.198 437.866 159.57 437.518C159.954 437.158 160.182 436.678 160.254 436.078H162.126C162.042 436.774 161.832 437.38 161.496 437.896C161.16 438.412 160.692 438.808 160.092 439.084C159.504 439.36 158.808 439.498 158.004 439.498ZM167.778 439.498C166.914 439.498 166.152 439.318 165.492 438.958C164.832 438.598 164.316 438.07 163.944 437.374C163.584 436.666 163.404 435.82 163.404 434.836C163.404 433.912 163.596 433.102 163.98 432.406C164.376 431.698 164.91 431.152 165.582 430.768C166.266 430.384 167.022 430.192 167.85 430.192C168.606 430.192 169.272 430.336 169.848 430.624C170.424 430.9 170.88 431.296 171.216 431.812C171.552 432.328 171.756 432.922 171.828 433.594H169.92C169.86 433.03 169.65 432.568 169.29 432.208C168.93 431.848 168.444 431.668 167.832 431.668C167.352 431.668 166.92 431.8 166.536 432.064C166.152 432.328 165.852 432.7 165.636 433.18C165.42 433.66 165.312 434.218 165.312 434.854C165.312 435.478 165.414 436.036 165.618 436.528C165.834 437.008 166.128 437.38 166.5 437.644C166.884 437.908 167.328 438.04 167.832 438.04C168.468 438.04 168.972 437.866 169.344 437.518C169.728 437.158 169.956 436.678 170.028 436.078H171.9C171.816 436.774 171.606 437.38 171.27 437.896C170.934 438.412 170.466 438.808 169.866 439.084C169.278 439.36 168.582 439.498 167.778 439.498ZM177.515 439.498C176.639 439.498 175.877 439.318 175.229 438.958C174.581 438.586 174.077 438.052 173.717 437.356C173.357 436.66 173.177 435.814 173.177 434.818C173.177 433.93 173.357 433.138 173.717 432.442C174.089 431.734 174.599 431.182 175.247 430.786C175.895 430.39 176.621 430.192 177.425 430.192C178.289 430.192 179.027 430.384 179.639 430.768C180.263 431.152 180.737 431.698 181.061 432.406C181.385 433.102 181.547 433.918 181.547 434.854V435.25H175.067C175.067 435.814 175.175 436.306 175.391 436.726C175.607 437.146 175.895 437.47 176.255 437.698C176.627 437.926 177.047 438.04 177.515 438.04C178.067 438.04 178.529 437.908 178.901 437.644C179.285 437.38 179.519 436.978 179.603 436.438H181.475C181.415 437.014 181.223 437.536 180.899 438.004C180.575 438.46 180.119 438.826 179.531 439.102C178.955 439.366 178.283 439.498 177.515 439.498ZM179.603 433.918C179.591 433.222 179.393 432.664 179.009 432.244C178.625 431.824 178.097 431.614 177.425 431.614C176.777 431.614 176.237 431.836 175.805 432.28C175.385 432.712 175.145 433.258 175.085 433.918H179.603ZM183.508 430.48H185.38V431.002C185.38 431.218 185.368 431.452 185.344 431.704C185.62 431.26 186.004 430.9 186.496 430.624C187 430.336 187.57 430.192 188.206 430.192C188.998 430.192 189.688 430.396 190.276 430.804C190.876 431.2 191.332 431.752 191.644 432.46C191.968 433.156 192.13 433.954 192.13 434.854C192.13 435.778 191.962 436.594 191.626 437.302C191.29 437.998 190.816 438.538 190.204 438.922C189.604 439.306 188.92 439.498 188.152 439.498C187.492 439.498 186.934 439.366 186.478 439.102C186.022 438.838 185.644 438.472 185.344 438.004C185.368 438.28 185.38 438.538 185.38 438.778V442.918H183.508V430.48ZM187.756 438.04C188.248 438.04 188.68 437.908 189.052 437.644C189.424 437.368 189.712 436.99 189.916 436.51C190.12 436.03 190.222 435.472 190.222 434.836C190.222 434.224 190.12 433.678 189.916 433.198C189.712 432.718 189.424 432.346 189.052 432.082C188.692 431.806 188.26 431.668 187.756 431.668C187.288 431.668 186.862 431.8 186.478 432.064C186.106 432.328 185.812 432.7 185.596 433.18C185.392 433.648 185.29 434.2 185.29 434.836C185.29 435.472 185.392 436.03 185.596 436.51C185.812 436.99 186.106 437.368 186.478 437.644C186.85 437.908 187.276 438.04 187.756 438.04ZM197.388 439.354C196.56 439.354 195.906 439.138 195.426 438.706C194.958 438.262 194.724 437.572 194.724 436.636V431.992H192.924V430.48H194.724V427.474H196.596V430.48H198.576V431.992H196.596V436.402C196.596 436.882 196.704 437.236 196.92 437.464C197.136 437.68 197.46 437.788 197.892 437.788C198.096 437.788 198.312 437.77 198.54 437.734V439.228C198.408 439.264 198.234 439.294 198.018 439.318C197.814 439.342 197.604 439.354 197.388 439.354ZM202.832 439.498C202.304 439.498 201.806 439.39 201.338 439.174C200.882 438.958 200.516 438.646 200.24 438.238C199.964 437.83 199.826 437.356 199.826 436.816C199.826 435.964 200.108 435.322 200.672 434.89C201.248 434.446 202.016 434.152 202.976 434.008L204.542 433.792C204.878 433.744 205.112 433.654 205.244 433.522C205.388 433.39 205.46 433.204 205.46 432.964C205.46 432.556 205.31 432.232 205.01 431.992C204.722 431.74 204.338 431.614 203.858 431.614C203.282 431.614 202.826 431.764 202.49 432.064C202.166 432.352 201.986 432.748 201.95 433.252H200.06C200.096 432.688 200.264 432.172 200.564 431.704C200.876 431.236 201.302 430.87 201.842 430.606C202.382 430.33 203.012 430.192 203.732 430.192C204.524 430.192 205.184 430.336 205.712 430.624C206.252 430.9 206.654 431.308 206.918 431.848C207.182 432.376 207.314 433.018 207.314 433.774V439.21H205.55V438.814C205.55 438.562 205.568 438.298 205.604 438.022C205.364 438.49 205.01 438.856 204.542 439.12C204.074 439.372 203.504 439.498 202.832 439.498ZM203.228 438.094C203.648 438.094 204.032 438.004 204.38 437.824C204.728 437.632 204.998 437.368 205.19 437.032C205.394 436.696 205.496 436.312 205.496 435.88V434.746C205.424 434.83 205.31 434.902 205.154 434.962C204.998 435.022 204.782 435.076 204.506 435.124L203.498 435.322C202.946 435.43 202.514 435.598 202.202 435.826C201.89 436.054 201.734 436.372 201.734 436.78C201.734 437.176 201.878 437.494 202.166 437.734C202.454 437.974 202.808 438.094 203.228 438.094ZM214.308 439.498C213.66 439.498 213.09 439.366 212.598 439.102C212.118 438.826 211.746 438.46 211.482 438.004C211.506 438.268 211.518 438.532 211.518 438.796V439.21H209.646V426.61H211.518V430.912C211.518 431.128 211.506 431.392 211.482 431.704C211.782 431.248 212.166 430.882 212.634 430.606C213.114 430.33 213.672 430.192 214.308 430.192C215.076 430.192 215.76 430.39 216.36 430.786C216.972 431.17 217.446 431.716 217.782 432.424C218.118 433.132 218.286 433.948 218.286 434.872C218.286 435.796 218.118 436.612 217.782 437.32C217.458 438.016 216.99 438.556 216.378 438.94C215.778 439.312 215.088 439.498 214.308 439.498ZM213.876 438.04C214.368 438.04 214.8 437.908 215.172 437.644C215.556 437.368 215.85 436.996 216.054 436.528C216.27 436.048 216.378 435.496 216.378 434.872C216.378 434.248 216.27 433.696 216.054 433.216C215.85 432.724 215.556 432.346 215.172 432.082C214.8 431.806 214.368 431.668 213.876 431.668C213.396 431.668 212.97 431.8 212.598 432.064C212.226 432.328 211.932 432.7 211.716 433.18C211.512 433.66 211.41 434.218 211.41 434.854C211.41 435.478 211.512 436.03 211.716 436.51C211.932 436.99 212.226 437.368 212.598 437.644C212.97 437.908 213.396 438.04 213.876 438.04ZM220.193 426.61H222.065V439.21H220.193V426.61ZM220.193 426.61H221.129V428.122H220.193V426.61ZM220.193 437.698H222.065V439.21H220.193V437.698ZM228.333 439.498C227.457 439.498 226.695 439.318 226.047 438.958C225.399 438.586 224.895 438.052 224.535 437.356C224.175 436.66 223.995 435.814 223.995 434.818C223.995 433.93 224.175 433.138 224.535 432.442C224.907 431.734 225.417 431.182 226.065 430.786C226.713 430.39 227.439 430.192 228.243 430.192C229.107 430.192 229.845 430.384 230.457 430.768C231.081 431.152 231.555 431.698 231.879 432.406C232.203 433.102 232.365 433.918 232.365 434.854V435.25H225.885C225.885 435.814 225.993 436.306 226.209 436.726C226.425 437.146 226.713 437.47 227.073 437.698C227.445 437.926 227.865 438.04 228.333 438.04C228.885 438.04 229.347 437.908 229.719 437.644C230.103 437.38 230.337 436.978 230.421 436.438H232.293C232.233 437.014 232.041 437.536 231.717 438.004C231.393 438.46 230.937 438.826 230.349 439.102C229.773 439.366 229.101 439.498 228.333 439.498ZM230.421 433.918C230.409 433.222 230.211 432.664 229.827 432.244C229.443 431.824 228.915 431.614 228.243 431.614C227.595 431.614 227.055 431.836 226.623 432.28C226.203 432.712 225.963 433.258 225.903 433.918H230.421Z" fill="#0F0D0B"></path>
<path d="M403.449 438.74C402.691 438.74 402.019 438.585 401.433 438.276C400.857 437.956 400.403 437.508 400.073 436.932C399.753 436.345 399.593 435.668 399.593 434.9C399.593 434.196 399.705 433.561 399.929 432.996C400.163 432.431 400.499 431.812 400.937 431.14L403.401 427.3H405.065L402.233 431.588C402.435 431.449 402.67 431.343 402.937 431.268C403.203 431.193 403.491 431.156 403.801 431.156C404.462 431.156 405.065 431.316 405.609 431.636C406.153 431.945 406.579 432.388 406.889 432.964C407.209 433.529 407.369 434.175 407.369 434.9C407.369 435.679 407.198 436.361 406.857 436.948C406.526 437.524 406.062 437.967 405.465 438.276C404.878 438.585 404.206 438.74 403.449 438.74ZM403.481 437.572C403.961 437.572 404.382 437.465 404.745 437.252C405.118 437.028 405.406 436.719 405.609 436.324C405.811 435.919 405.913 435.46 405.913 434.948C405.913 434.169 405.694 433.535 405.257 433.044C404.83 432.553 404.254 432.308 403.529 432.308C403.049 432.308 402.622 432.42 402.249 432.644C401.875 432.868 401.587 433.183 401.385 433.588C401.182 433.983 401.081 434.436 401.081 434.948C401.081 435.46 401.177 435.919 401.369 436.324C401.571 436.719 401.854 437.028 402.217 437.252C402.579 437.465 403.001 437.572 403.481 437.572ZM413.01 430.788H414.386V438.5H413.01V430.788ZM413.01 437.364H414.386V438.5H413.01V437.364ZM413.01 430.788H413.698V431.924H413.01V430.788ZM412.882 427.684H414.482V429.332H412.882V427.684ZM419.464 438.74C418.781 438.74 418.194 438.623 417.704 438.388C417.213 438.153 416.834 437.828 416.568 437.412C416.301 436.996 416.162 436.511 416.152 435.956H417.496C417.517 436.489 417.698 436.911 418.04 437.22C418.392 437.519 418.872 437.668 419.48 437.668C420.013 437.668 420.44 437.556 420.76 437.332C421.09 437.097 421.256 436.788 421.256 436.404C421.256 436.095 421.144 435.844 420.92 435.652C420.706 435.449 420.37 435.305 419.912 435.22L418.744 434.996C418.008 434.857 417.432 434.601 417.016 434.228C416.6 433.855 416.392 433.38 416.392 432.804C416.392 432.367 416.52 431.977 416.776 431.636C417.032 431.295 417.384 431.028 417.832 430.836C418.29 430.633 418.808 430.532 419.384 430.532C420.002 430.532 420.536 430.633 420.984 430.836C421.432 431.028 421.778 431.311 422.024 431.684C422.28 432.047 422.424 432.489 422.456 433.012H421.096C421.042 432.553 420.856 432.207 420.536 431.972C420.226 431.737 419.81 431.62 419.288 431.62C418.829 431.62 418.461 431.721 418.184 431.924C417.906 432.127 417.768 432.393 417.768 432.724C417.768 433.023 417.874 433.257 418.088 433.428C418.301 433.599 418.632 433.727 419.08 433.812L420.28 434.036C421.016 434.175 421.586 434.425 421.992 434.788C422.408 435.151 422.616 435.641 422.616 436.26C422.616 436.719 422.488 437.14 422.232 437.524C421.976 437.897 421.608 438.196 421.128 438.42C420.658 438.633 420.104 438.74 419.464 438.74ZM427.198 438.74C426.515 438.74 425.929 438.623 425.438 438.388C424.947 438.153 424.569 437.828 424.302 437.412C424.035 436.996 423.897 436.511 423.886 435.956H425.23C425.251 436.489 425.433 436.911 425.774 437.22C426.126 437.519 426.606 437.668 427.214 437.668C427.747 437.668 428.174 437.556 428.494 437.332C428.825 437.097 428.99 436.788 428.99 436.404C428.99 436.095 428.878 435.844 428.654 435.652C428.441 435.449 428.105 435.305 427.646 435.22L426.478 434.996C425.742 434.857 425.166 434.601 424.75 434.228C424.334 433.855 424.126 433.38 424.126 432.804C424.126 432.367 424.254 431.977 424.51 431.636C424.766 431.295 425.118 431.028 425.566 430.836C426.025 430.633 426.542 430.532 427.118 430.532C427.737 430.532 428.27 430.633 428.718 430.836C429.166 431.028 429.513 431.311 429.758 431.684C430.014 432.047 430.158 432.489 430.19 433.012H428.83C428.777 432.553 428.59 432.207 428.27 431.972C427.961 431.737 427.545 431.62 427.022 431.62C426.563 431.62 426.195 431.721 425.918 431.924C425.641 432.127 425.502 432.393 425.502 432.724C425.502 433.023 425.609 433.257 425.822 433.428C426.035 433.599 426.366 433.727 426.814 433.812L428.014 434.036C428.75 434.175 429.321 434.425 429.726 434.788C430.142 435.151 430.35 435.641 430.35 436.26C430.35 436.719 430.222 437.14 429.966 437.524C429.71 437.897 429.342 438.196 428.862 438.42C428.393 438.633 427.838 438.74 427.198 438.74ZM434.916 438.74C434.319 438.74 433.812 438.623 433.396 438.388C432.98 438.153 432.666 437.812 432.452 437.364C432.239 436.905 432.132 436.351 432.132 435.7V430.788H433.508V435.412C433.508 436.169 433.647 436.735 433.924 437.108C434.202 437.481 434.65 437.668 435.268 437.668C435.684 437.668 436.036 437.567 436.324 437.364C436.623 437.151 436.847 436.852 436.996 436.468C437.156 436.073 437.236 435.599 437.236 435.044V430.788H438.596V438.5H437.252V438.036C437.252 437.876 437.252 437.721 437.252 437.572V437.428C437.071 437.833 436.767 438.153 436.34 438.388C435.914 438.623 435.439 438.74 434.916 438.74ZM444.211 438.74C443.443 438.74 442.776 438.58 442.211 438.26C441.656 437.94 441.224 437.471 440.915 436.852C440.616 436.233 440.467 435.487 440.467 434.612C440.467 433.833 440.621 433.135 440.931 432.516C441.251 431.897 441.688 431.412 442.243 431.06C442.808 430.708 443.437 430.532 444.131 430.532C444.888 430.532 445.533 430.703 446.067 431.044C446.6 431.375 447.005 431.849 447.283 432.468C447.56 433.076 447.699 433.796 447.699 434.628V434.9H441.843C441.853 435.476 441.96 435.972 442.163 436.388C442.376 436.804 442.659 437.124 443.011 437.348C443.373 437.561 443.779 437.668 444.227 437.668C444.749 437.668 445.197 437.551 445.571 437.316C445.944 437.071 446.173 436.671 446.259 436.116H447.619C447.565 436.596 447.405 437.033 447.139 437.428C446.872 437.823 446.488 438.143 445.987 438.388C445.496 438.623 444.904 438.74 444.211 438.74ZM446.227 433.924C446.227 433.22 446.04 432.66 445.667 432.244C445.304 431.828 444.792 431.62 444.131 431.62C443.501 431.62 442.984 431.839 442.579 432.276C442.173 432.713 441.944 433.263 441.891 433.924H446.227ZM452.292 438.74C451.609 438.74 451.022 438.623 450.532 438.388C450.041 438.153 449.662 437.828 449.396 437.412C449.129 436.996 448.99 436.511 448.98 435.956H450.324C450.345 436.489 450.526 436.911 450.868 437.22C451.22 437.519 451.7 437.668 452.308 437.668C452.841 437.668 453.268 437.556 453.588 437.332C453.918 437.097 454.084 436.788 454.084 436.404C454.084 436.095 453.972 435.844 453.748 435.652C453.534 435.449 453.198 435.305 452.74 435.22L451.572 434.996C450.836 434.857 450.26 434.601 449.844 434.228C449.428 433.855 449.22 433.38 449.22 432.804C449.22 432.367 449.348 431.977 449.604 431.636C449.86 431.295 450.212 431.028 450.66 430.836C451.118 430.633 451.636 430.532 452.212 430.532C452.83 430.532 453.364 430.633 453.812 430.836C454.26 431.028 454.606 431.311 454.852 431.684C455.108 432.047 455.252 432.489 455.284 433.012H453.924C453.87 432.553 453.684 432.207 453.364 431.972C453.054 431.737 452.638 431.62 452.116 431.62C451.657 431.62 451.289 431.721 451.012 431.924C450.734 432.127 450.596 432.393 450.596 432.724C450.596 433.023 450.702 433.257 450.916 433.428C451.129 433.599 451.46 433.727 451.908 433.812L453.108 434.036C453.844 434.175 454.414 434.425 454.82 434.788C455.236 435.151 455.444 435.641 455.444 436.26C455.444 436.719 455.316 437.14 455.06 437.524C454.804 437.897 454.436 438.196 453.956 438.42C453.486 438.633 452.932 438.74 452.292 438.74Z" fill="#706D66"></path>
<path d="M472.041 431.932L476.178 436.068L480.315 431.932" stroke="#100F0C" stroke-width="1.37898" stroke-linecap="round" stroke-linejoin="round"></path>
<path d="M79.0322 471.689H489.968C495.68 471.689 500.311 476.32 500.311 482.032V512.968C500.311 518.68 495.68 523.311 489.968 523.311H79.0322C73.3203 523.311 68.6895 518.68 68.6895 512.968V482.032C68.6895 476.32 73.3203 471.689 79.0322 471.689Z" fill="white"></path>
<path d="M79.0322 471.689H489.968C495.68 471.689 500.311 476.32 500.311 482.032V512.968C500.311 518.68 495.68 523.311 489.968 523.311H79.0322C73.3203 523.311 68.6895 518.68 68.6895 512.968V482.032C68.6895 476.32 73.3203 471.689 79.0322 471.689Z" stroke="#ECEBE9" stroke-width="1.37898"></path>
<circle cx="91.4428" cy="497.5" r="6.8949" fill="#22C55E"></circle>
<path d="M114.482 490.11H116.822L121.934 502.71H119.72L116.03 492.954C115.994 492.822 115.952 492.696 115.904 492.576C115.82 492.36 115.724 492.084 115.616 491.748C115.568 491.904 115.52 492.042 115.472 492.162C115.424 492.27 115.376 492.396 115.328 492.54L115.166 492.954L111.494 502.71H109.37L114.482 490.11ZM112.592 497.436H118.622V499.11H112.592V497.436ZM126.926 502.998C126.062 502.998 125.3 502.818 124.64 502.458C123.98 502.098 123.464 501.57 123.092 500.874C122.732 500.166 122.552 499.32 122.552 498.336C122.552 497.412 122.744 496.602 123.128 495.906C123.524 495.198 124.058 494.652 124.73 494.268C125.414 493.884 126.17 493.692 126.998 493.692C127.754 493.692 128.42 493.836 128.996 494.124C129.572 494.4 130.028 494.796 130.364 495.312C130.7 495.828 130.904 496.422 130.976 497.094H129.068C129.008 496.53 128.798 496.068 128.438 495.708C128.078 495.348 127.592 495.168 126.98 495.168C126.5 495.168 126.068 495.3 125.684 495.564C125.3 495.828 125 496.2 124.784 496.68C124.568 497.16 124.46 497.718 124.46 498.354C124.46 498.978 124.562 499.536 124.766 500.028C124.982 500.508 125.276 500.88 125.648 501.144C126.032 501.408 126.476 501.54 126.98 501.54C127.616 501.54 128.12 501.366 128.492 501.018C128.876 500.658 129.104 500.178 129.176 499.578H131.048C130.964 500.274 130.754 500.88 130.418 501.396C130.082 501.912 129.614 502.308 129.014 502.584C128.426 502.86 127.73 502.998 126.926 502.998ZM136.7 502.998C135.836 502.998 135.074 502.818 134.414 502.458C133.754 502.098 133.238 501.57 132.866 500.874C132.506 500.166 132.326 499.32 132.326 498.336C132.326 497.412 132.518 496.602 132.902 495.906C133.298 495.198 133.832 494.652 134.504 494.268C135.188 493.884 135.944 493.692 136.772 493.692C137.528 493.692 138.194 493.836 138.77 494.124C139.346 494.4 139.802 494.796 140.138 495.312C140.474 495.828 140.678 496.422 140.75 497.094H138.842C138.782 496.53 138.572 496.068 138.212 495.708C137.852 495.348 137.366 495.168 136.754 495.168C136.274 495.168 135.842 495.3 135.458 495.564C135.074 495.828 134.774 496.2 134.558 496.68C134.342 497.16 134.234 497.718 134.234 498.354C134.234 498.978 134.336 499.536 134.54 500.028C134.756 500.508 135.05 500.88 135.422 501.144C135.806 501.408 136.25 501.54 136.754 501.54C137.39 501.54 137.894 501.366 138.266 501.018C138.65 500.658 138.878 500.178 138.95 499.578H140.822C140.738 500.274 140.528 500.88 140.192 501.396C139.856 501.912 139.388 502.308 138.788 502.584C138.2 502.86 137.504 502.998 136.7 502.998ZM146.437 502.998C145.561 502.998 144.799 502.818 144.151 502.458C143.503 502.086 142.999 501.552 142.639 500.856C142.279 500.16 142.099 499.314 142.099 498.318C142.099 497.43 142.279 496.638 142.639 495.942C143.011 495.234 143.521 494.682 144.169 494.286C144.817 493.89 145.543 493.692 146.347 493.692C147.211 493.692 147.949 493.884 148.561 494.268C149.185 494.652 149.659 495.198 149.983 495.906C150.307 496.602 150.469 497.418 150.469 498.354V498.75H143.989C143.989 499.314 144.097 499.806 144.313 500.226C144.529 500.646 144.817 500.97 145.177 501.198C145.549 501.426 145.969 501.54 146.437 501.54C146.989 501.54 147.451 501.408 147.823 501.144C148.207 500.88 148.441 500.478 148.525 499.938H150.397C150.337 500.514 150.145 501.036 149.821 501.504C149.497 501.96 149.041 502.326 148.453 502.602C147.877 502.866 147.205 502.998 146.437 502.998ZM148.525 497.418C148.513 496.722 148.315 496.164 147.931 495.744C147.547 495.324 147.019 495.114 146.347 495.114C145.699 495.114 145.159 495.336 144.727 495.78C144.307 496.212 144.067 496.758 144.007 497.418H148.525ZM152.43 493.98H154.302V494.502C154.302 494.718 154.29 494.952 154.266 495.204C154.542 494.76 154.926 494.4 155.418 494.124C155.922 493.836 156.492 493.692 157.128 493.692C157.92 493.692 158.61 493.896 159.198 494.304C159.798 494.7 160.254 495.252 160.566 495.96C160.89 496.656 161.052 497.454 161.052 498.354C161.052 499.278 160.884 500.094 160.548 500.802C160.212 501.498 159.738 502.038 159.126 502.422C158.526 502.806 157.842 502.998 157.074 502.998C156.414 502.998 155.856 502.866 155.4 502.602C154.944 502.338 154.566 501.972 154.266 501.504C154.29 501.78 154.302 502.038 154.302 502.278V506.418H152.43V493.98ZM156.678 501.54C157.17 501.54 157.602 501.408 157.974 501.144C158.346 500.868 158.634 500.49 158.838 500.01C159.042 499.53 159.144 498.972 159.144 498.336C159.144 497.724 159.042 497.178 158.838 496.698C158.634 496.218 158.346 495.846 157.974 495.582C157.614 495.306 157.182 495.168 156.678 495.168C156.21 495.168 155.784 495.3 155.4 495.564C155.028 495.828 154.734 496.2 154.518 496.68C154.314 497.148 154.212 497.7 154.212 498.336C154.212 498.972 154.314 499.53 154.518 500.01C154.734 500.49 155.028 500.868 155.4 501.144C155.772 501.408 156.198 501.54 156.678 501.54ZM166.31 502.854C165.482 502.854 164.828 502.638 164.348 502.206C163.88 501.762 163.646 501.072 163.646 500.136V495.492H161.846V493.98H163.646V490.974H165.518V493.98H167.498V495.492H165.518V499.902C165.518 500.382 165.626 500.736 165.842 500.964C166.058 501.18 166.382 501.288 166.814 501.288C167.018 501.288 167.234 501.27 167.462 501.234V502.728C167.33 502.764 167.156 502.794 166.94 502.818C166.736 502.842 166.526 502.854 166.31 502.854ZM171.754 502.998C171.226 502.998 170.728 502.89 170.26 502.674C169.804 502.458 169.438 502.146 169.162 501.738C168.886 501.33 168.748 500.856 168.748 500.316C168.748 499.464 169.03 498.822 169.594 498.39C170.17 497.946 170.938 497.652 171.898 497.508L173.464 497.292C173.8 497.244 174.034 497.154 174.166 497.022C174.31 496.89 174.382 496.704 174.382 496.464C174.382 496.056 174.232 495.732 173.932 495.492C173.644 495.24 173.26 495.114 172.78 495.114C172.204 495.114 171.748 495.264 171.412 495.564C171.088 495.852 170.908 496.248 170.872 496.752H168.982C169.018 496.188 169.186 495.672 169.486 495.204C169.798 494.736 170.224 494.37 170.764 494.106C171.304 493.83 171.934 493.692 172.654 493.692C173.446 493.692 174.106 493.836 174.634 494.124C175.174 494.4 175.576 494.808 175.84 495.348C176.104 495.876 176.236 496.518 176.236 497.274V502.71H174.472V502.314C174.472 502.062 174.49 501.798 174.526 501.522C174.286 501.99 173.932 502.356 173.464 502.62C172.996 502.872 172.426 502.998 171.754 502.998ZM172.15 501.594C172.57 501.594 172.954 501.504 173.302 501.324C173.65 501.132 173.92 500.868 174.112 500.532C174.316 500.196 174.418 499.812 174.418 499.38V498.246C174.346 498.33 174.232 498.402 174.076 498.462C173.92 498.522 173.704 498.576 173.428 498.624L172.42 498.822C171.868 498.93 171.436 499.098 171.124 499.326C170.812 499.554 170.656 499.872 170.656 500.28C170.656 500.676 170.8 500.994 171.088 501.234C171.376 501.474 171.73 501.594 172.15 501.594ZM183.23 502.998C182.582 502.998 182.012 502.866 181.52 502.602C181.04 502.326 180.668 501.96 180.404 501.504C180.428 501.768 180.44 502.032 180.44 502.296V502.71H178.568V490.11H180.44V494.412C180.44 494.628 180.428 494.892 180.404 495.204C180.704 494.748 181.088 494.382 181.556 494.106C182.036 493.83 182.594 493.692 183.23 493.692C183.998 493.692 184.682 493.89 185.282 494.286C185.894 494.67 186.368 495.216 186.704 495.924C187.04 496.632 187.208 497.448 187.208 498.372C187.208 499.296 187.04 500.112 186.704 500.82C186.38 501.516 185.912 502.056 185.3 502.44C184.7 502.812 184.01 502.998 183.23 502.998ZM182.798 501.54C183.29 501.54 183.722 501.408 184.094 501.144C184.478 500.868 184.772 500.496 184.976 500.028C185.192 499.548 185.3 498.996 185.3 498.372C185.3 497.748 185.192 497.196 184.976 496.716C184.772 496.224 184.478 495.846 184.094 495.582C183.722 495.306 183.29 495.168 182.798 495.168C182.318 495.168 181.892 495.3 181.52 495.564C181.148 495.828 180.854 496.2 180.638 496.68C180.434 497.16 180.332 497.718 180.332 498.354C180.332 498.978 180.434 499.53 180.638 500.01C180.854 500.49 181.148 500.868 181.52 501.144C181.892 501.408 182.318 501.54 182.798 501.54ZM189.115 490.11H190.987V502.71H189.115V490.11ZM189.115 490.11H190.051V491.622H189.115V490.11ZM189.115 501.198H190.987V502.71H189.115V501.198ZM197.255 502.998C196.379 502.998 195.617 502.818 194.969 502.458C194.321 502.086 193.817 501.552 193.457 500.856C193.097 500.16 192.917 499.314 192.917 498.318C192.917 497.43 193.097 496.638 193.457 495.942C193.829 495.234 194.339 494.682 194.987 494.286C195.635 493.89 196.361 493.692 197.165 493.692C198.029 493.692 198.767 493.884 199.379 494.268C200.003 494.652 200.477 495.198 200.801 495.906C201.125 496.602 201.287 497.418 201.287 498.354V498.75H194.807C194.807 499.314 194.915 499.806 195.131 500.226C195.347 500.646 195.635 500.97 195.995 501.198C196.367 501.426 196.787 501.54 197.255 501.54C197.807 501.54 198.269 501.408 198.641 501.144C199.025 500.88 199.259 500.478 199.343 499.938H201.215C201.155 500.514 200.963 501.036 200.639 501.504C200.315 501.96 199.859 502.326 199.271 502.602C198.695 502.866 198.023 502.998 197.255 502.998ZM199.343 497.418C199.331 496.722 199.133 496.164 198.749 495.744C198.365 495.324 197.837 495.114 197.165 495.114C196.517 495.114 195.977 495.336 195.545 495.78C195.125 496.212 194.885 496.758 194.825 497.418H199.343Z" fill="#0F0D0B"></path>
<path d="M399.609 502C399.609 501.509 399.683 501.072 399.833 500.688C399.982 500.293 400.222 499.909 400.553 499.536C400.894 499.152 401.358 498.736 401.945 498.288L403.465 497.12L403.497 497.088C404.115 496.608 404.617 496.123 405.001 495.632C405.385 495.131 405.577 494.565 405.577 493.936C405.577 493.509 405.491 493.125 405.321 492.784C405.15 492.443 404.905 492.176 404.585 491.984C404.265 491.792 403.886 491.696 403.449 491.696C402.99 491.696 402.59 491.803 402.249 492.016C401.907 492.229 401.641 492.549 401.449 492.976C401.257 493.392 401.161 493.899 401.161 494.496V494.704H399.721V494.336C399.721 493.557 399.881 492.885 400.201 492.32C400.531 491.744 400.979 491.307 401.545 491.008C402.11 490.699 402.745 490.544 403.449 490.544C404.142 490.544 404.761 490.683 405.305 490.96C405.849 491.237 406.27 491.632 406.569 492.144C406.878 492.645 407.033 493.237 407.033 493.92C407.033 494.475 406.921 494.992 406.697 495.472C406.473 495.941 406.137 496.411 405.689 496.88C405.241 497.339 404.649 497.845 403.913 498.4L403.129 498.992C402.553 499.419 402.126 499.765 401.849 500.032C401.571 500.299 401.406 500.528 401.353 500.72H407.225V502H399.609ZM412.932 494.288H414.308V502H412.932V494.288ZM412.932 500.864H414.308V502H412.932V500.864ZM412.932 494.288H413.62V495.424H412.932V494.288ZM412.804 491.184H414.404V492.832H412.804V491.184ZM419.386 502.24C418.703 502.24 418.116 502.123 417.626 501.888C417.135 501.653 416.756 501.328 416.49 500.912C416.223 500.496 416.084 500.011 416.074 499.456H417.418C417.439 499.989 417.62 500.411 417.962 500.72C418.314 501.019 418.794 501.168 419.402 501.168C419.935 501.168 420.362 501.056 420.682 500.832C421.012 500.597 421.178 500.288 421.178 499.904C421.178 499.595 421.066 499.344 420.842 499.152C420.628 498.949 420.292 498.805 419.834 498.72L418.666 498.496C417.93 498.357 417.354 498.101 416.938 497.728C416.522 497.355 416.314 496.88 416.314 496.304C416.314 495.867 416.442 495.477 416.698 495.136C416.954 494.795 417.306 494.528 417.754 494.336C418.212 494.133 418.73 494.032 419.306 494.032C419.924 494.032 420.458 494.133 420.906 494.336C421.354 494.528 421.7 494.811 421.946 495.184C422.202 495.547 422.346 495.989 422.378 496.512H421.018C420.964 496.053 420.778 495.707 420.458 495.472C420.148 495.237 419.732 495.12 419.21 495.12C418.751 495.12 418.383 495.221 418.106 495.424C417.828 495.627 417.69 495.893 417.69 496.224C417.69 496.523 417.796 496.757 418.01 496.928C418.223 497.099 418.554 497.227 419.002 497.312L420.202 497.536C420.938 497.675 421.508 497.925 421.914 498.288C422.33 498.651 422.538 499.141 422.538 499.76C422.538 500.219 422.41 500.64 422.154 501.024C421.898 501.397 421.53 501.696 421.05 501.92C420.58 502.133 420.026 502.24 419.386 502.24ZM427.12 502.24C426.437 502.24 425.851 502.123 425.36 501.888C424.869 501.653 424.491 501.328 424.224 500.912C423.957 500.496 423.819 500.011 423.808 499.456H425.152C425.173 499.989 425.355 500.411 425.696 500.72C426.048 501.019 426.528 501.168 427.136 501.168C427.669 501.168 428.096 501.056 428.416 500.832C428.747 500.597 428.912 500.288 428.912 499.904C428.912 499.595 428.8 499.344 428.576 499.152C428.363 498.949 428.027 498.805 427.568 498.72L426.4 498.496C425.664 498.357 425.088 498.101 424.672 497.728C424.256 497.355 424.048 496.88 424.048 496.304C424.048 495.867 424.176 495.477 424.432 495.136C424.688 494.795 425.04 494.528 425.488 494.336C425.947 494.133 426.464 494.032 427.04 494.032C427.659 494.032 428.192 494.133 428.64 494.336C429.088 494.528 429.435 494.811 429.68 495.184C429.936 495.547 430.08 495.989 430.112 496.512H428.752C428.699 496.053 428.512 495.707 428.192 495.472C427.883 495.237 427.467 495.12 426.944 495.12C426.485 495.12 426.117 495.221 425.84 495.424C425.563 495.627 425.424 495.893 425.424 496.224C425.424 496.523 425.531 496.757 425.744 496.928C425.957 497.099 426.288 497.227 426.736 497.312L427.936 497.536C428.672 497.675 429.243 497.925 429.648 498.288C430.064 498.651 430.272 499.141 430.272 499.76C430.272 500.219 430.144 500.64 429.888 501.024C429.632 501.397 429.264 501.696 428.784 501.92C428.315 502.133 427.76 502.24 427.12 502.24ZM434.838 502.24C434.241 502.24 433.734 502.123 433.318 501.888C432.902 501.653 432.588 501.312 432.374 500.864C432.161 500.405 432.054 499.851 432.054 499.2V494.288H433.43V498.912C433.43 499.669 433.569 500.235 433.846 500.608C434.124 500.981 434.572 501.168 435.19 501.168C435.606 501.168 435.958 501.067 436.246 500.864C436.545 500.651 436.769 500.352 436.918 499.968C437.078 499.573 437.158 499.099 437.158 498.544V494.288H438.518V502H437.174V501.536C437.174 501.376 437.174 501.221 437.174 501.072V500.928C436.993 501.333 436.689 501.653 436.262 501.888C435.836 502.123 435.361 502.24 434.838 502.24ZM444.133 502.24C443.365 502.24 442.698 502.08 442.133 501.76C441.578 501.44 441.146 500.971 440.837 500.352C440.538 499.733 440.389 498.987 440.389 498.112C440.389 497.333 440.543 496.635 440.853 496.016C441.173 495.397 441.61 494.912 442.165 494.56C442.73 494.208 443.359 494.032 444.053 494.032C444.81 494.032 445.455 494.203 445.989 494.544C446.522 494.875 446.927 495.349 447.205 495.968C447.482 496.576 447.621 497.296 447.621 498.128V498.4H441.765C441.775 498.976 441.882 499.472 442.085 499.888C442.298 500.304 442.581 500.624 442.933 500.848C443.295 501.061 443.701 501.168 444.149 501.168C444.671 501.168 445.119 501.051 445.493 500.816C445.866 500.571 446.095 500.171 446.181 499.616H447.541C447.487 500.096 447.327 500.533 447.061 500.928C446.794 501.323 446.41 501.643 445.909 501.888C445.418 502.123 444.826 502.24 444.133 502.24ZM446.149 497.424C446.149 496.72 445.962 496.16 445.589 495.744C445.226 495.328 444.714 495.12 444.053 495.12C443.423 495.12 442.906 495.339 442.501 495.776C442.095 496.213 441.866 496.763 441.813 497.424H446.149ZM452.214 502.24C451.531 502.24 450.944 502.123 450.454 501.888C449.963 501.653 449.584 501.328 449.318 500.912C449.051 500.496 448.912 500.011 448.902 499.456H450.246C450.267 499.989 450.448 500.411 450.79 500.72C451.142 501.019 451.622 501.168 452.23 501.168C452.763 501.168 453.19 501.056 453.51 500.832C453.84 500.597 454.006 500.288 454.006 499.904C454.006 499.595 453.894 499.344 453.67 499.152C453.456 498.949 453.12 498.805 452.662 498.72L451.494 498.496C450.758 498.357 450.182 498.101 449.766 497.728C449.35 497.355 449.142 496.88 449.142 496.304C449.142 495.867 449.27 495.477 449.526 495.136C449.782 494.795 450.134 494.528 450.582 494.336C451.04 494.133 451.558 494.032 452.134 494.032C452.752 494.032 453.286 494.133 453.734 494.336C454.182 494.528 454.528 494.811 454.774 495.184C455.03 495.547 455.174 495.989 455.206 496.512H453.846C453.792 496.053 453.606 495.707 453.286 495.472C452.976 495.237 452.56 495.12 452.038 495.12C451.579 495.12 451.211 495.221 450.934 495.424C450.656 495.627 450.518 495.893 450.518 496.224C450.518 496.523 450.624 496.757 450.838 496.928C451.051 497.099 451.382 497.227 451.83 497.312L453.03 497.536C453.766 497.675 454.336 497.925 454.742 498.288C455.158 498.651 455.366 499.141 455.366 499.76C455.366 500.219 455.238 500.64 454.982 501.024C454.726 501.397 454.358 501.696 453.878 501.92C453.408 502.133 452.854 502.24 452.214 502.24Z" fill="#706D66"></path>
<path d="M472.041 495.432L476.178 499.568L480.315 495.432" stroke="#100F0C" stroke-width="1.37898" stroke-linecap="round" stroke-linejoin="round"></path>
<path d="M73.62 137.951H78.534C79.338 137.951 80.058 138.065 80.694 138.293C81.342 138.509 81.864 138.887 82.26 139.427C82.656 139.955 82.854 140.657 82.854 141.533C82.854 142.409 82.662 143.111 82.278 143.639C81.894 144.167 81.378 144.545 80.73 144.773C80.094 144.989 79.362 145.097 78.534 145.097H75.258V150.551H73.62V137.951ZM78.516 143.729C79.44 143.729 80.112 143.537 80.532 143.153C80.964 142.769 81.18 142.229 81.18 141.533C81.18 140.825 80.964 140.279 80.532 139.895C80.112 139.511 79.44 139.319 78.516 139.319H75.258V143.729H78.516ZM86.8019 150.821C86.2499 150.821 85.7459 150.713 85.2899 150.497C84.8339 150.281 84.4739 149.975 84.2099 149.579C83.9459 149.171 83.8139 148.703 83.8139 148.175C83.8139 147.395 84.0779 146.783 84.6059 146.339C85.1459 145.895 85.8419 145.607 86.6939 145.475L88.5479 145.187C88.8719 145.139 89.0999 145.049 89.2319 144.917C89.3639 144.785 89.4299 144.587 89.4299 144.323C89.4299 143.855 89.2679 143.489 88.9439 143.225C88.6199 142.949 88.1999 142.811 87.6839 142.811C87.0359 142.811 86.5379 142.973 86.1899 143.297C85.8419 143.609 85.6559 144.041 85.6319 144.593H84.0839C84.1079 144.053 84.2579 143.555 84.5339 143.099C84.8099 142.643 85.2059 142.277 85.7219 142.001C86.2499 141.725 86.8619 141.587 87.5579 141.587C88.2659 141.587 88.8719 141.719 89.3759 141.983C89.8919 142.247 90.2819 142.625 90.5459 143.117C90.8099 143.609 90.9419 144.191 90.9419 144.863V150.551H89.4659V150.119C89.4659 149.867 89.4659 149.621 89.4659 149.381C89.2499 149.837 88.9079 150.191 88.4399 150.443C87.9839 150.695 87.4379 150.821 86.8019 150.821ZM87.0179 149.615C87.4739 149.615 87.8819 149.519 88.2419 149.327C88.6139 149.123 88.9019 148.847 89.1059 148.499C89.3219 148.139 89.4299 147.731 89.4299 147.275V145.997C89.3819 146.081 89.2739 146.153 89.1059 146.213C88.9499 146.273 88.7399 146.327 88.4759 146.375L87.2159 146.609C86.6639 146.717 86.2259 146.897 85.9019 147.149C85.5779 147.401 85.4159 147.743 85.4159 148.175C85.4159 148.607 85.5659 148.955 85.8659 149.219C86.1779 149.483 86.5619 149.615 87.0179 149.615ZM95.7475 150.245L92.2735 141.875H93.9835L96.1435 147.419C96.2875 147.767 96.4255 148.121 96.5575 148.481C96.5935 148.361 96.6235 148.271 96.6475 148.211C96.6715 148.151 96.7015 148.061 96.7375 147.941C96.7855 147.821 96.8155 147.737 96.8275 147.689C96.8515 147.629 96.8875 147.539 96.9355 147.419L98.8435 141.875H100.463L95.8015 154.295H94.1635L95.7475 150.245ZM102.02 141.875H103.568V142.559C103.568 142.715 103.568 142.877 103.568 143.045C103.844 142.601 104.198 142.247 104.63 141.983C105.074 141.719 105.566 141.587 106.106 141.587C106.694 141.587 107.21 141.731 107.654 142.019C108.11 142.307 108.464 142.733 108.716 143.297C109.028 142.769 109.424 142.355 109.904 142.055C110.396 141.743 110.942 141.587 111.542 141.587C112.142 141.587 112.67 141.713 113.126 141.965C113.582 142.217 113.936 142.607 114.188 143.135C114.452 143.651 114.584 144.293 114.584 145.061V150.551H113.036V145.367C113.036 144.515 112.892 143.879 112.604 143.459C112.328 143.027 111.866 142.811 111.218 142.811C110.774 142.811 110.39 142.931 110.066 143.171C109.742 143.399 109.496 143.711 109.328 144.107C109.16 144.491 109.076 144.917 109.076 145.385V150.551H107.528V145.421C107.528 144.569 107.384 143.921 107.096 143.477C106.82 143.033 106.37 142.811 105.746 142.811C105.314 142.811 104.93 142.931 104.594 143.171C104.27 143.411 104.018 143.735 103.838 144.143C103.658 144.539 103.568 144.977 103.568 145.457V150.551H102.02V141.875ZM120.791 150.821C119.927 150.821 119.177 150.641 118.541 150.281C117.917 149.921 117.431 149.393 117.083 148.697C116.747 148.001 116.579 147.161 116.579 146.177C116.579 145.301 116.753 144.515 117.101 143.819C117.461 143.123 117.953 142.577 118.577 142.181C119.213 141.785 119.921 141.587 120.701 141.587C121.553 141.587 122.279 141.779 122.879 142.163C123.479 142.535 123.935 143.069 124.247 143.765C124.559 144.449 124.715 145.259 124.715 146.195V146.501H118.127C118.139 147.149 118.259 147.707 118.487 148.175C118.727 148.643 119.045 149.003 119.441 149.255C119.849 149.495 120.305 149.615 120.809 149.615C121.397 149.615 121.901 149.483 122.321 149.219C122.741 148.943 122.999 148.493 123.095 147.869H124.625C124.565 148.409 124.385 148.901 124.085 149.345C123.785 149.789 123.353 150.149 122.789 150.425C122.237 150.689 121.571 150.821 120.791 150.821ZM123.059 145.403C123.059 144.611 122.849 143.981 122.429 143.513C122.021 143.045 121.445 142.811 120.701 142.811C119.993 142.811 119.411 143.057 118.955 143.549C118.499 144.041 118.241 144.659 118.181 145.403H123.059ZM126.84 141.875H128.37V142.469C128.37 142.661 128.37 142.853 128.37 143.045C128.622 142.637 128.994 142.295 129.486 142.019C129.978 141.731 130.5 141.587 131.052 141.587C131.712 141.587 132.282 141.725 132.762 142.001C133.242 142.265 133.608 142.661 133.86 143.189C134.124 143.717 134.256 144.347 134.256 145.079V150.551H132.708V145.277C132.708 144.437 132.558 143.819 132.258 143.423C131.958 143.015 131.472 142.811 130.8 142.811C130.308 142.811 129.876 142.925 129.504 143.153C129.144 143.381 128.868 143.687 128.676 144.071C128.484 144.455 128.388 144.875 128.388 145.331V150.551H126.84V141.875ZM139.797 150.695C139.077 150.695 138.483 150.497 138.015 150.101C137.559 149.693 137.331 149.039 137.331 148.139V143.153H135.711V141.875H137.331V139.013H138.879V141.875H140.679V143.153H138.879V147.977C138.879 148.457 138.987 148.799 139.203 149.003C139.431 149.207 139.749 149.309 140.157 149.309C140.337 149.309 140.553 149.291 140.805 149.255V150.587C140.649 150.623 140.487 150.647 140.319 150.659C140.151 150.683 139.977 150.695 139.797 150.695ZM149.746 150.695C149.026 150.695 148.432 150.497 147.964 150.101C147.508 149.693 147.28 149.039 147.28 148.139V143.153H145.66V141.875H147.28V139.013H148.828V141.875H150.628V143.153H148.828V147.977C148.828 148.457 148.936 148.799 149.152 149.003C149.38 149.207 149.698 149.309 150.106 149.309C150.286 149.309 150.502 149.291 150.754 149.255V150.587C150.598 150.623 150.436 150.647 150.268 150.659C150.1 150.683 149.926 150.695 149.746 150.695ZM156.158 150.821C155.294 150.821 154.544 150.641 153.908 150.281C153.284 149.921 152.798 149.393 152.45 148.697C152.114 148.001 151.946 147.161 151.946 146.177C151.946 145.301 152.12 144.515 152.468 143.819C152.828 143.123 153.32 142.577 153.944 142.181C154.58 141.785 155.288 141.587 156.068 141.587C156.92 141.587 157.646 141.779 158.246 142.163C158.846 142.535 159.302 143.069 159.614 143.765C159.926 144.449 160.082 145.259 160.082 146.195V146.501H153.494C153.506 147.149 153.626 147.707 153.854 148.175C154.094 148.643 154.412 149.003 154.808 149.255C155.216 149.495 155.672 149.615 156.176 149.615C156.764 149.615 157.268 149.483 157.688 149.219C158.108 148.943 158.366 148.493 158.462 147.869H159.992C159.932 148.409 159.752 148.901 159.452 149.345C159.152 149.789 158.72 150.149 158.156 150.425C157.604 150.689 156.938 150.821 156.158 150.821ZM158.426 145.403C158.426 144.611 158.216 143.981 157.796 143.513C157.388 143.045 156.812 142.811 156.068 142.811C155.36 142.811 154.778 143.057 154.322 143.549C153.866 144.041 153.608 144.659 153.548 145.403H158.426ZM162.207 141.875H163.755V142.253C163.755 142.601 163.755 142.955 163.755 143.315C163.983 142.799 164.331 142.385 164.799 142.073C165.279 141.749 165.837 141.587 166.473 141.587C166.641 141.587 166.773 141.593 166.869 141.605V143.135C166.701 143.111 166.539 143.099 166.383 143.099C165.819 143.099 165.339 143.207 164.943 143.423C164.559 143.627 164.265 143.945 164.061 144.377C163.857 144.797 163.755 145.325 163.755 145.961V150.551H162.207V141.875ZM168.447 141.875H169.995V142.559C169.995 142.715 169.995 142.877 169.995 143.045C170.271 142.601 170.625 142.247 171.057 141.983C171.501 141.719 171.993 141.587 172.533 141.587C173.121 141.587 173.637 141.731 174.081 142.019C174.537 142.307 174.891 142.733 175.143 143.297C175.455 142.769 175.851 142.355 176.331 142.055C176.823 141.743 177.369 141.587 177.969 141.587C178.569 141.587 179.097 141.713 179.553 141.965C180.009 142.217 180.363 142.607 180.615 143.135C180.879 143.651 181.011 144.293 181.011 145.061V150.551H179.463V145.367C179.463 144.515 179.319 143.879 179.031 143.459C178.755 143.027 178.293 142.811 177.645 142.811C177.201 142.811 176.817 142.931 176.493 143.171C176.169 143.399 175.923 143.711 175.755 144.107C175.587 144.491 175.503 144.917 175.503 145.385V150.551H173.955V145.421C173.955 144.569 173.811 143.921 173.523 143.477C173.247 143.033 172.797 142.811 172.173 142.811C171.741 142.811 171.357 142.931 171.021 143.171C170.697 143.411 170.445 143.735 170.265 144.143C170.085 144.539 169.995 144.977 169.995 145.457V150.551H168.447V141.875ZM186.606 150.821C185.838 150.821 185.178 150.689 184.626 150.425C184.074 150.161 183.648 149.795 183.348 149.327C183.048 148.859 182.892 148.313 182.88 147.689H184.392C184.416 148.289 184.62 148.763 185.004 149.111C185.4 149.447 185.94 149.615 186.624 149.615C187.224 149.615 187.704 149.489 188.064 149.237C188.436 148.973 188.622 148.625 188.622 148.193C188.622 147.845 188.496 147.563 188.244 147.347C188.004 147.119 187.626 146.957 187.11 146.861L185.796 146.609C184.968 146.453 184.32 146.165 183.852 145.745C183.384 145.325 183.15 144.791 183.15 144.143C183.15 143.651 183.294 143.213 183.582 142.829C183.87 142.445 184.266 142.145 184.77 141.929C185.286 141.701 185.868 141.587 186.516 141.587C187.212 141.587 187.812 141.701 188.316 141.929C188.82 142.145 189.21 142.463 189.486 142.883C189.774 143.291 189.936 143.789 189.972 144.377H188.442C188.382 143.861 188.172 143.471 187.812 143.207C187.464 142.943 186.996 142.811 186.408 142.811C185.892 142.811 185.478 142.925 185.166 143.153C184.854 143.381 184.698 143.681 184.698 144.053C184.698 144.389 184.818 144.653 185.058 144.845C185.298 145.037 185.67 145.181 186.174 145.277L187.524 145.529C188.352 145.685 188.994 145.967 189.45 146.375C189.918 146.783 190.152 147.335 190.152 148.031C190.152 148.547 190.008 149.021 189.72 149.453C189.432 149.873 189.018 150.209 188.478 150.461C187.95 150.701 187.326 150.821 186.606 150.821Z" fill="#0F0D0B"></path>
<rect x="72" y="167.102" width="425" height="14" rx="2" fill="#E6E5E3"></rect>
<rect x="72" y="187.102" width="350.2" height="14" rx="2" fill="#E6E5E3"></rect>
<path d="M78.876 242.923C77.676 242.923 76.62 242.659 75.708 242.131C74.808 241.591 74.106 240.823 73.602 239.827C73.098 238.819 72.846 237.637 72.846 236.281C72.846 234.997 73.104 233.863 73.62 232.879C74.148 231.883 74.874 231.115 75.798 230.575C76.722 230.035 77.76 229.765 78.912 229.765C79.908 229.765 80.796 229.957 81.576 230.341C82.356 230.713 82.98 231.229 83.448 231.889C83.916 232.549 84.192 233.293 84.276 234.121H82.476C82.308 233.185 81.912 232.459 81.288 231.943C80.664 231.415 79.848 231.151 78.84 231.151C77.988 231.151 77.238 231.361 76.59 231.781C75.954 232.189 75.456 232.783 75.096 233.563C74.748 234.331 74.574 235.237 74.574 236.281C74.574 237.325 74.754 238.249 75.114 239.053C75.474 239.845 75.978 240.457 76.626 240.889C77.274 241.321 78.012 241.537 78.84 241.537C79.86 241.537 80.694 241.273 81.342 240.745C81.99 240.217 82.404 239.497 82.584 238.585H84.294C84.186 239.473 83.892 240.247 83.412 240.907C82.932 241.555 82.302 242.053 81.522 242.401C80.742 242.749 79.86 242.923 78.876 242.923ZM90.0127 242.923C89.1847 242.923 88.4467 242.731 87.7987 242.347C87.1507 241.963 86.6467 241.423 86.2867 240.727C85.9267 240.019 85.7467 239.209 85.7467 238.297C85.7467 237.409 85.9267 236.617 86.2867 235.921C86.6467 235.213 87.1507 234.667 87.7987 234.283C88.4467 233.887 89.1847 233.689 90.0127 233.689C90.8287 233.689 91.5607 233.887 92.2087 234.283C92.8567 234.667 93.3607 235.213 93.7207 235.921C94.0927 236.617 94.2787 237.409 94.2787 238.297C94.2787 239.209 94.0927 240.019 93.7207 240.727C93.3607 241.423 92.8567 241.963 92.2087 242.347C91.5607 242.731 90.8287 242.923 90.0127 242.923ZM90.0127 241.717C90.5527 241.717 91.0207 241.573 91.4167 241.285C91.8247 240.997 92.1367 240.595 92.3527 240.079C92.5687 239.563 92.6767 238.969 92.6767 238.297C92.6767 237.277 92.4307 236.461 91.9387 235.849C91.4587 235.225 90.8167 234.913 90.0127 234.913C89.4847 234.913 89.0167 235.057 88.6087 235.345C88.2007 235.621 87.8887 236.017 87.6727 236.533C87.4567 237.037 87.3487 237.625 87.3487 238.297C87.3487 239.329 87.5887 240.157 88.0687 240.781C88.5487 241.405 89.1967 241.717 90.0127 241.717ZM96.3769 233.977H97.9069V234.571C97.9069 234.763 97.9069 234.955 97.9069 235.147C98.1589 234.739 98.5309 234.397 99.0229 234.121C99.5149 233.833 100.037 233.689 100.589 233.689C101.249 233.689 101.819 233.827 102.299 234.103C102.779 234.367 103.145 234.763 103.397 235.291C103.661 235.819 103.793 236.449 103.793 237.181V242.653H102.245V237.379C102.245 236.539 102.095 235.921 101.795 235.525C101.495 235.117 101.009 234.913 100.337 234.913C99.8449 234.913 99.4129 235.027 99.0409 235.255C98.6809 235.483 98.4049 235.789 98.2129 236.173C98.0209 236.557 97.9249 236.977 97.9249 237.433V242.653H96.3769V233.977ZM109.099 233.977H112.861V235.255H109.099V233.977ZM106.921 235.255H105.283V233.977H106.921V232.375C106.921 231.559 107.161 230.923 107.641 230.467C108.121 229.999 108.709 229.765 109.405 229.765C109.573 229.765 109.735 229.783 109.891 229.819C110.059 229.843 110.191 229.879 110.287 229.927V231.241C109.963 231.205 109.777 231.187 109.729 231.187C109.321 231.187 109.009 231.301 108.793 231.529C108.577 231.745 108.469 232.063 108.469 232.483V233.977H110.269V235.255H108.469V242.653H106.921V235.255ZM111.871 233.977H113.419V242.653H111.871V233.977ZM111.871 241.375H113.419V242.653H111.871V241.375ZM111.871 233.977H112.645V235.255H111.871V233.977ZM111.727 230.485H113.527V232.339H111.727V230.485ZM119.52 242.923C118.752 242.923 118.068 242.743 117.468 242.383C116.868 242.023 116.394 241.495 116.046 240.799C115.698 240.103 115.524 239.275 115.524 238.315C115.524 237.439 115.686 236.653 116.01 235.957C116.346 235.249 116.82 234.697 117.432 234.301C118.044 233.893 118.752 233.689 119.556 233.689C120.216 233.689 120.786 233.839 121.266 234.139C121.758 234.427 122.118 234.763 122.346 235.147C122.346 234.907 122.346 234.673 122.346 234.445V230.053H123.894V242.653H122.346V242.149C122.346 241.909 122.346 241.675 122.346 241.447C122.106 241.867 121.728 242.221 121.212 242.509C120.708 242.785 120.144 242.923 119.52 242.923ZM119.79 241.717C120.306 241.717 120.762 241.579 121.158 241.303C121.566 241.015 121.884 240.613 122.112 240.097C122.34 239.581 122.454 238.981 122.454 238.297C122.454 237.277 122.208 236.461 121.716 235.849C121.224 235.225 120.582 234.913 119.79 234.913C119.274 234.913 118.812 235.057 118.404 235.345C118.008 235.621 117.696 236.017 117.468 236.533C117.24 237.049 117.126 237.643 117.126 238.315C117.126 238.987 117.234 239.581 117.45 240.097C117.678 240.613 117.99 241.015 118.386 241.303C118.794 241.579 119.262 241.717 119.79 241.717ZM130.213 242.923C129.349 242.923 128.599 242.743 127.963 242.383C127.339 242.023 126.853 241.495 126.505 240.799C126.169 240.103 126.001 239.263 126.001 238.279C126.001 237.403 126.175 236.617 126.523 235.921C126.883 235.225 127.375 234.679 127.999 234.283C128.635 233.887 129.343 233.689 130.123 233.689C130.975 233.689 131.701 233.881 132.301 234.265C132.901 234.637 133.357 235.171 133.669 235.867C133.981 236.551 134.137 237.361 134.137 238.297V238.603H127.549C127.561 239.251 127.681 239.809 127.909 240.277C128.149 240.745 128.467 241.105 128.863 241.357C129.271 241.597 129.727 241.717 130.231 241.717C130.819 241.717 131.323 241.585 131.743 241.321C132.163 241.045 132.421 240.595 132.517 239.971H134.047C133.987 240.511 133.807 241.003 133.507 241.447C133.207 241.891 132.775 242.251 132.211 242.527C131.659 242.791 130.993 242.923 130.213 242.923ZM132.481 237.505C132.481 236.713 132.271 236.083 131.851 235.615C131.443 235.147 130.867 234.913 130.123 234.913C129.415 234.913 128.833 235.159 128.377 235.651C127.921 236.143 127.663 236.761 127.603 237.505H132.481ZM136.262 233.977H137.792V234.571C137.792 234.763 137.792 234.955 137.792 235.147C138.044 234.739 138.416 234.397 138.908 234.121C139.4 233.833 139.922 233.689 140.474 233.689C141.134 233.689 141.704 233.827 142.184 234.103C142.664 234.367 143.03 234.763 143.282 235.291C143.546 235.819 143.678 236.449 143.678 237.181V242.653H142.13V237.379C142.13 236.539 141.98 235.921 141.68 235.525C141.38 235.117 140.894 234.913 140.222 234.913C139.73 234.913 139.298 235.027 138.926 235.255C138.566 235.483 138.29 235.789 138.098 236.173C137.906 236.557 137.81 236.977 137.81 237.433V242.653H136.262V233.977ZM149.219 242.797C148.499 242.797 147.905 242.599 147.437 242.203C146.981 241.795 146.753 241.141 146.753 240.241V235.255H145.133V233.977H146.753V231.115H148.301V233.977H150.101V235.255H148.301V240.079C148.301 240.559 148.409 240.901 148.625 241.105C148.853 241.309 149.171 241.411 149.579 241.411C149.759 241.411 149.975 241.393 150.227 241.357V242.689C150.071 242.725 149.909 242.749 149.741 242.761C149.573 242.785 149.399 242.797 149.219 242.797ZM152.082 233.977H153.63V242.653H152.082V233.977ZM152.082 241.375H153.63V242.653H152.082V241.375ZM152.082 233.977H152.856V235.255H152.082V233.977ZM151.938 230.485H153.738V232.339H151.938V230.485ZM158.767 242.923C158.215 242.923 157.711 242.815 157.255 242.599C156.799 242.383 156.439 242.077 156.175 241.681C155.911 241.273 155.779 240.805 155.779 240.277C155.779 239.497 156.043 238.885 156.571 238.441C157.111 237.997 157.807 237.709 158.659 237.577L160.513 237.289C160.837 237.241 161.065 237.151 161.197 237.019C161.329 236.887 161.395 236.689 161.395 236.425C161.395 235.957 161.233 235.591 160.909 235.327C160.585 235.051 160.165 234.913 159.649 234.913C159.001 234.913 158.503 235.075 158.155 235.399C157.807 235.711 157.621 236.143 157.597 236.695H156.049C156.073 236.155 156.223 235.657 156.499 235.201C156.775 234.745 157.171 234.379 157.687 234.103C158.215 233.827 158.827 233.689 159.523 233.689C160.231 233.689 160.837 233.821 161.341 234.085C161.857 234.349 162.247 234.727 162.511 235.219C162.775 235.711 162.907 236.293 162.907 236.965V242.653H161.431V242.221C161.431 241.969 161.431 241.723 161.431 241.483C161.215 241.939 160.873 242.293 160.405 242.545C159.949 242.797 159.403 242.923 158.767 242.923ZM158.983 241.717C159.439 241.717 159.847 241.621 160.207 241.429C160.579 241.225 160.867 240.949 161.071 240.601C161.287 240.241 161.395 239.833 161.395 239.377V238.099C161.347 238.183 161.239 238.255 161.071 238.315C160.915 238.375 160.705 238.429 160.441 238.477L159.181 238.711C158.629 238.819 158.191 238.999 157.867 239.251C157.543 239.503 157.381 239.845 157.381 240.277C157.381 240.709 157.531 241.057 157.831 241.321C158.143 241.585 158.527 241.717 158.983 241.717ZM165.459 230.053H167.007V242.653H165.459V230.053ZM165.459 230.053H166.233V231.331H165.459V230.053ZM165.459 241.375H167.007V242.653H165.459V241.375ZM169.678 233.977H171.226V242.653H169.678V233.977ZM169.678 241.375H171.226V242.653H169.678V241.375ZM169.678 233.977H170.452V235.255H169.678V233.977ZM169.534 230.485H171.334V232.339H169.534V230.485ZM176.974 242.797C176.254 242.797 175.66 242.599 175.192 242.203C174.736 241.795 174.508 241.141 174.508 240.241V235.255H172.888V233.977H174.508V231.115H176.056V233.977H177.856V235.255H176.056V240.079C176.056 240.559 176.164 240.901 176.38 241.105C176.608 241.309 176.926 241.411 177.334 241.411C177.514 241.411 177.73 241.393 177.982 241.357V242.689C177.826 242.725 177.664 242.749 177.496 242.761C177.328 242.785 177.154 242.797 176.974 242.797ZM182.408 242.347L178.934 233.977H180.644L182.804 239.521C182.948 239.869 183.086 240.223 183.218 240.583C183.254 240.463 183.284 240.373 183.308 240.313C183.332 240.253 183.362 240.163 183.398 240.043C183.446 239.923 183.476 239.839 183.488 239.791C183.512 239.731 183.548 239.641 183.596 239.521L185.504 233.977H187.124L182.462 246.397H180.824L182.408 242.347ZM198.231 242.923C197.031 242.923 195.975 242.659 195.063 242.131C194.163 241.591 193.461 240.823 192.957 239.827C192.453 238.819 192.201 237.637 192.201 236.281C192.201 234.997 192.459 233.863 192.975 232.879C193.503 231.883 194.229 231.115 195.153 230.575C196.077 230.035 197.115 229.765 198.267 229.765C199.263 229.765 200.151 229.957 200.931 230.341C201.711 230.713 202.335 231.229 202.803 231.889C203.271 232.549 203.547 233.293 203.631 234.121H201.831C201.663 233.185 201.267 232.459 200.643 231.943C200.019 231.415 199.203 231.151 198.195 231.151C197.343 231.151 196.593 231.361 195.945 231.781C195.309 232.189 194.811 232.783 194.451 233.563C194.103 234.331 193.929 235.237 193.929 236.281C193.929 237.325 194.109 238.249 194.469 239.053C194.829 239.845 195.333 240.457 195.981 240.889C196.629 241.321 197.367 241.537 198.195 241.537C199.215 241.537 200.049 241.273 200.697 240.745C201.345 240.217 201.759 239.497 201.939 238.585H203.649C203.541 239.473 203.247 240.247 202.767 240.907C202.287 241.555 201.657 242.053 200.877 242.401C200.097 242.749 199.215 242.923 198.231 242.923ZM205.66 230.053H207.208V242.653H205.66V230.053ZM205.66 230.053H206.434V231.331H205.66V230.053ZM205.66 241.375H207.208V242.653H205.66V241.375ZM212.345 242.923C211.793 242.923 211.289 242.815 210.833 242.599C210.377 242.383 210.017 242.077 209.753 241.681C209.489 241.273 209.357 240.805 209.357 240.277C209.357 239.497 209.621 238.885 210.149 238.441C210.689 237.997 211.385 237.709 212.237 237.577L214.091 237.289C214.415 237.241 214.643 237.151 214.775 237.019C214.907 236.887 214.973 236.689 214.973 236.425C214.973 235.957 214.811 235.591 214.487 235.327C214.163 235.051 213.743 234.913 213.227 234.913C212.579 234.913 212.081 235.075 211.733 235.399C211.385 235.711 211.199 236.143 211.175 236.695H209.627C209.651 236.155 209.801 235.657 210.077 235.201C210.353 234.745 210.749 234.379 211.265 234.103C211.793 233.827 212.405 233.689 213.101 233.689C213.809 233.689 214.415 233.821 214.919 234.085C215.435 234.349 215.825 234.727 216.089 235.219C216.353 235.711 216.485 236.293 216.485 236.965V242.653H215.009V242.221C215.009 241.969 215.009 241.723 215.009 241.483C214.793 241.939 214.451 242.293 213.983 242.545C213.527 242.797 212.981 242.923 212.345 242.923ZM212.561 241.717C213.017 241.717 213.425 241.621 213.785 241.429C214.157 241.225 214.445 240.949 214.649 240.601C214.865 240.241 214.973 239.833 214.973 239.377V238.099C214.925 238.183 214.817 238.255 214.649 238.315C214.493 238.375 214.283 238.429 214.019 238.477L212.759 238.711C212.207 238.819 211.769 238.999 211.445 239.251C211.121 239.503 210.959 239.845 210.959 240.277C210.959 240.709 211.109 241.057 211.409 241.321C211.721 241.585 212.105 241.717 212.561 241.717ZM222.061 242.923C221.389 242.923 220.819 242.791 220.351 242.527C219.883 242.263 219.529 241.879 219.289 241.375C219.049 240.859 218.929 240.235 218.929 239.503V233.977H220.477V239.179C220.477 240.031 220.633 240.667 220.945 241.087C221.257 241.507 221.761 241.717 222.457 241.717C222.925 241.717 223.321 241.603 223.645 241.375C223.981 241.135 224.233 240.799 224.401 240.367C224.581 239.923 224.671 239.389 224.671 238.765V233.977H226.201V242.653H224.689V242.131C224.689 241.951 224.689 241.777 224.689 241.609V241.447C224.485 241.903 224.143 242.263 223.663 242.527C223.183 242.791 222.649 242.923 222.061 242.923ZM231.905 242.923C231.137 242.923 230.477 242.791 229.925 242.527C229.373 242.263 228.947 241.897 228.647 241.429C228.347 240.961 228.191 240.415 228.179 239.791H229.691C229.715 240.391 229.919 240.865 230.303 241.213C230.699 241.549 231.239 241.717 231.923 241.717C232.523 241.717 233.003 241.591 233.363 241.339C233.735 241.075 233.921 240.727 233.921 240.295C233.921 239.947 233.795 239.665 233.543 239.449C233.303 239.221 232.925 239.059 232.409 238.963L231.095 238.711C230.267 238.555 229.619 238.267 229.151 237.847C228.683 237.427 228.449 236.893 228.449 236.245C228.449 235.753 228.593 235.315 228.881 234.931C229.169 234.547 229.565 234.247 230.069 234.031C230.585 233.803 231.167 233.689 231.815 233.689C232.511 233.689 233.111 233.803 233.615 234.031C234.119 234.247 234.509 234.565 234.785 234.985C235.073 235.393 235.235 235.891 235.271 236.479H233.741C233.681 235.963 233.471 235.573 233.111 235.309C232.763 235.045 232.295 234.913 231.707 234.913C231.191 234.913 230.777 235.027 230.465 235.255C230.153 235.483 229.997 235.783 229.997 236.155C229.997 236.491 230.117 236.755 230.357 236.947C230.597 237.139 230.969 237.283 231.473 237.379L232.823 237.631C233.651 237.787 234.293 238.069 234.749 238.477C235.217 238.885 235.451 239.437 235.451 240.133C235.451 240.649 235.307 241.123 235.019 241.555C234.731 241.975 234.317 242.311 233.777 242.563C233.249 242.803 232.625 242.923 231.905 242.923ZM241.218 242.923C240.354 242.923 239.604 242.743 238.968 242.383C238.344 242.023 237.858 241.495 237.51 240.799C237.174 240.103 237.006 239.263 237.006 238.279C237.006 237.403 237.18 236.617 237.528 235.921C237.888 235.225 238.38 234.679 239.004 234.283C239.64 233.887 240.348 233.689 241.128 233.689C241.98 233.689 242.706 233.881 243.306 234.265C243.906 234.637 244.362 235.171 244.674 235.867C244.986 236.551 245.142 237.361 245.142 238.297V238.603H238.554C238.566 239.251 238.686 239.809 238.914 240.277C239.154 240.745 239.472 241.105 239.868 241.357C240.276 241.597 240.732 241.717 241.236 241.717C241.824 241.717 242.328 241.585 242.748 241.321C243.168 241.045 243.426 240.595 243.522 239.971H245.052C244.992 240.511 244.812 241.003 244.512 241.447C244.212 241.891 243.78 242.251 243.216 242.527C242.664 242.791 241.998 242.923 241.218 242.923ZM243.486 237.505C243.486 236.713 243.276 236.083 242.856 235.615C242.448 235.147 241.872 234.913 241.128 234.913C240.42 234.913 239.838 235.159 239.382 235.651C238.926 236.143 238.668 236.761 238.608 237.505H243.486Z" fill="#0F0D0B"></path>
<rect x="72" y="259.204" width="425" height="14" rx="2" fill="#E6E5E3"></rect>
<rect x="72" y="279.204" width="350.2" height="14" rx="2" fill="#E6E5E3"></rect>
<path d="M73.62 322.155H75.258V334.755H73.62V322.155ZM73.62 333.369H75.258V334.755H73.62V333.369ZM73.62 322.155H75.258V323.523H73.62V322.155ZM78.2187 326.079H79.7487V326.673C79.7487 326.865 79.7487 327.057 79.7487 327.249C80.0007 326.841 80.3727 326.499 80.8647 326.223C81.3567 325.935 81.8787 325.791 82.4307 325.791C83.0907 325.791 83.6607 325.929 84.1407 326.205C84.6207 326.469 84.9867 326.865 85.2387 327.393C85.5027 327.921 85.6347 328.551 85.6347 329.283V334.755H84.0867V329.481C84.0867 328.641 83.9367 328.023 83.6367 327.627C83.3367 327.219 82.8507 327.015 82.1787 327.015C81.6867 327.015 81.2547 327.129 80.8827 327.357C80.5227 327.585 80.2467 327.891 80.0547 328.275C79.8627 328.659 79.7667 329.079 79.7667 329.535V334.755H78.2187V326.079ZM91.6235 335.025C90.8555 335.025 90.1715 334.845 89.5715 334.485C88.9715 334.125 88.4975 333.597 88.1495 332.901C87.8015 332.205 87.6275 331.377 87.6275 330.417C87.6275 329.541 87.7895 328.755 88.1135 328.059C88.4495 327.351 88.9235 326.799 89.5355 326.403C90.1475 325.995 90.8555 325.791 91.6595 325.791C92.3195 325.791 92.8895 325.941 93.3695 326.241C93.8615 326.529 94.2215 326.865 94.4495 327.249C94.4495 327.009 94.4495 326.775 94.4495 326.547V322.155H95.9975V334.755H94.4495V334.251C94.4495 334.011 94.4495 333.777 94.4495 333.549C94.2095 333.969 93.8315 334.323 93.3155 334.611C92.8115 334.887 92.2475 335.025 91.6235 335.025ZM91.8935 333.819C92.4095 333.819 92.8655 333.681 93.2615 333.405C93.6695 333.117 93.9875 332.715 94.2155 332.199C94.4435 331.683 94.5575 331.083 94.5575 330.399C94.5575 329.379 94.3115 328.563 93.8195 327.951C93.3275 327.327 92.6855 327.015 91.8935 327.015C91.3775 327.015 90.9155 327.159 90.5075 327.447C90.1115 327.723 89.7995 328.119 89.5715 328.635C89.3435 329.151 89.2295 329.745 89.2295 330.417C89.2295 331.089 89.3375 331.683 89.5535 332.199C89.7815 332.715 90.0935 333.117 90.4895 333.405C90.8975 333.681 91.3655 333.819 91.8935 333.819ZM102.316 335.025C101.452 335.025 100.702 334.845 100.066 334.485C99.4421 334.125 98.9561 333.597 98.6081 332.901C98.2721 332.205 98.1041 331.365 98.1041 330.381C98.1041 329.505 98.2781 328.719 98.6261 328.023C98.9861 327.327 99.4781 326.781 100.102 326.385C100.738 325.989 101.446 325.791 102.226 325.791C103.078 325.791 103.804 325.983 104.404 326.367C105.004 326.739 105.46 327.273 105.772 327.969C106.084 328.653 106.24 329.463 106.24 330.399V330.705H99.6521C99.6641 331.353 99.7841 331.911 100.012 332.379C100.252 332.847 100.57 333.207 100.966 333.459C101.374 333.699 101.83 333.819 102.334 333.819C102.922 333.819 103.426 333.687 103.846 333.423C104.266 333.147 104.524 332.697 104.62 332.073H106.15C106.09 332.613 105.91 333.105 105.61 333.549C105.31 333.993 104.878 334.353 104.314 334.629C103.762 334.893 103.096 335.025 102.316 335.025ZM104.584 329.607C104.584 328.815 104.374 328.185 103.954 327.717C103.546 327.249 102.97 327.015 102.226 327.015C101.518 327.015 100.936 327.261 100.48 327.753C100.024 328.245 99.7661 328.863 99.7061 329.607H104.584ZM108.365 326.079H109.913V326.763C109.913 326.919 109.913 327.081 109.913 327.249C110.189 326.805 110.543 326.451 110.975 326.187C111.419 325.923 111.911 325.791 112.451 325.791C113.039 325.791 113.555 325.935 113.999 326.223C114.455 326.511 114.809 326.937 115.061 327.501C115.373 326.973 115.769 326.559 116.249 326.259C116.741 325.947 117.287 325.791 117.887 325.791C118.487 325.791 119.015 325.917 119.471 326.169C119.927 326.421 120.281 326.811 120.533 327.339C120.797 327.855 120.929 328.497 120.929 329.265V334.755H119.381V329.571C119.381 328.719 119.237 328.083 118.949 327.663C118.673 327.231 118.211 327.015 117.563 327.015C117.119 327.015 116.735 327.135 116.411 327.375C116.087 327.603 115.841 327.915 115.673 328.311C115.505 328.695 115.421 329.121 115.421 329.589V334.755H113.873V329.625C113.873 328.773 113.729 328.125 113.441 327.681C113.165 327.237 112.715 327.015 112.091 327.015C111.659 327.015 111.275 327.135 110.939 327.375C110.615 327.615 110.363 327.939 110.183 328.347C110.003 328.743 109.913 329.181 109.913 329.661V334.755H108.365V326.079ZM123.482 326.079H125.012V326.673C125.012 326.865 125.012 327.057 125.012 327.249C125.264 326.841 125.636 326.499 126.128 326.223C126.62 325.935 127.142 325.791 127.694 325.791C128.354 325.791 128.924 325.929 129.404 326.205C129.884 326.469 130.25 326.865 130.502 327.393C130.766 327.921 130.898 328.551 130.898 329.283V334.755H129.35V329.481C129.35 328.641 129.2 328.023 128.9 327.627C128.6 327.219 128.114 327.015 127.442 327.015C126.95 327.015 126.518 327.129 126.146 327.357C125.786 327.585 125.51 327.891 125.318 328.275C125.126 328.659 125.03 329.079 125.03 329.535V334.755H123.482V326.079ZM133.449 326.079H134.997V334.755H133.449V326.079ZM133.449 333.477H134.997V334.755H133.449V333.477ZM133.449 326.079H134.223V327.357H133.449V326.079ZM133.305 322.587H135.105V324.441H133.305V322.587ZM140.494 326.079H144.256V327.357H140.494V326.079ZM138.316 327.357H136.678V326.079H138.316V324.477C138.316 323.661 138.556 323.025 139.036 322.569C139.516 322.101 140.104 321.867 140.8 321.867C140.968 321.867 141.13 321.885 141.286 321.921C141.454 321.945 141.586 321.981 141.682 322.029V323.343C141.358 323.307 141.172 323.289 141.124 323.289C140.716 323.289 140.404 323.403 140.188 323.631C139.972 323.847 139.864 324.165 139.864 324.585V326.079H141.664V327.357H139.864V334.755H138.316V327.357ZM143.266 326.079H144.814V334.755H143.266V326.079ZM143.266 333.477H144.814V334.755H143.266V333.477ZM143.266 326.079H144.04V327.357H143.266V326.079ZM143.122 322.587H144.922V324.441H143.122V322.587ZM151.221 335.025C150.417 335.025 149.685 334.851 149.025 334.503C148.377 334.155 147.861 333.633 147.477 332.937C147.105 332.241 146.919 331.395 146.919 330.399C146.919 329.499 147.111 328.701 147.495 328.005C147.879 327.309 148.401 326.769 149.061 326.385C149.733 325.989 150.477 325.791 151.293 325.791C151.977 325.791 152.595 325.923 153.147 326.187C153.699 326.451 154.143 326.823 154.479 327.303C154.815 327.783 155.013 328.347 155.073 328.995H153.471C153.399 328.407 153.165 327.933 152.769 327.573C152.385 327.201 151.881 327.015 151.257 327.015C150.717 327.015 150.237 327.165 149.817 327.465C149.409 327.753 149.091 328.155 148.863 328.671C148.635 329.187 148.521 329.763 148.521 330.399C148.521 331.083 148.635 331.683 148.863 332.199C149.091 332.715 149.415 333.117 149.835 333.405C150.255 333.681 150.741 333.819 151.293 333.819C151.929 333.819 152.451 333.645 152.859 333.297C153.267 332.949 153.513 332.463 153.597 331.839H155.127C155.067 332.475 154.875 333.033 154.551 333.513C154.239 333.993 153.801 334.365 153.237 334.629C152.673 334.893 152.001 335.025 151.221 335.025ZM159.575 335.025C159.023 335.025 158.519 334.917 158.063 334.701C157.607 334.485 157.247 334.179 156.983 333.783C156.719 333.375 156.587 332.907 156.587 332.379C156.587 331.599 156.851 330.987 157.379 330.543C157.919 330.099 158.615 329.811 159.467 329.679L161.321 329.391C161.645 329.343 161.873 329.253 162.005 329.121C162.137 328.989 162.203 328.791 162.203 328.527C162.203 328.059 162.041 327.693 161.717 327.429C161.393 327.153 160.973 327.015 160.457 327.015C159.809 327.015 159.311 327.177 158.963 327.501C158.615 327.813 158.429 328.245 158.405 328.797H156.857C156.881 328.257 157.031 327.759 157.307 327.303C157.583 326.847 157.979 326.481 158.495 326.205C159.023 325.929 159.635 325.791 160.331 325.791C161.039 325.791 161.645 325.923 162.149 326.187C162.665 326.451 163.055 326.829 163.319 327.321C163.583 327.813 163.715 328.395 163.715 329.067V334.755H162.239V334.323C162.239 334.071 162.239 333.825 162.239 333.585C162.023 334.041 161.681 334.395 161.213 334.647C160.757 334.899 160.211 335.025 159.575 335.025ZM159.791 333.819C160.247 333.819 160.655 333.723 161.015 333.531C161.387 333.327 161.675 333.051 161.879 332.703C162.095 332.343 162.203 331.935 162.203 331.479V330.201C162.155 330.285 162.047 330.357 161.879 330.417C161.723 330.477 161.513 330.531 161.249 330.579L159.989 330.813C159.437 330.921 158.999 331.101 158.675 331.353C158.351 331.605 158.189 331.947 158.189 332.379C158.189 332.811 158.339 333.159 158.639 333.423C158.951 333.687 159.335 333.819 159.791 333.819ZM169.258 334.899C168.538 334.899 167.944 334.701 167.476 334.305C167.02 333.897 166.792 333.243 166.792 332.343V327.357H165.172V326.079H166.792V323.217H168.34V326.079H170.14V327.357H168.34V332.181C168.34 332.661 168.448 333.003 168.664 333.207C168.892 333.411 169.21 333.513 169.618 333.513C169.798 333.513 170.014 333.495 170.266 333.459V334.791C170.11 334.827 169.948 334.851 169.78 334.863C169.612 334.887 169.438 334.899 169.258 334.899ZM172.121 326.079H173.669V334.755H172.121V326.079ZM172.121 333.477H173.669V334.755H172.121V333.477ZM172.121 326.079H172.895V327.357H172.121V326.079ZM171.977 322.587H173.777V324.441H171.977V322.587ZM180.048 335.025C179.22 335.025 178.482 334.833 177.834 334.449C177.186 334.065 176.682 333.525 176.322 332.829C175.962 332.121 175.782 331.311 175.782 330.399C175.782 329.511 175.962 328.719 176.322 328.023C176.682 327.315 177.186 326.769 177.834 326.385C178.482 325.989 179.22 325.791 180.048 325.791C180.864 325.791 181.596 325.989 182.244 326.385C182.892 326.769 183.396 327.315 183.756 328.023C184.128 328.719 184.314 329.511 184.314 330.399C184.314 331.311 184.128 332.121 183.756 332.829C183.396 333.525 182.892 334.065 182.244 334.449C181.596 334.833 180.864 335.025 180.048 335.025ZM180.048 333.819C180.588 333.819 181.056 333.675 181.452 333.387C181.86 333.099 182.172 332.697 182.388 332.181C182.604 331.665 182.712 331.071 182.712 330.399C182.712 329.379 182.466 328.563 181.974 327.951C181.494 327.327 180.852 327.015 180.048 327.015C179.52 327.015 179.052 327.159 178.644 327.447C178.236 327.723 177.924 328.119 177.708 328.635C177.492 329.139 177.384 329.727 177.384 330.399C177.384 331.431 177.624 332.259 178.104 332.883C178.584 333.507 179.232 333.819 180.048 333.819ZM186.412 326.079H187.942V326.673C187.942 326.865 187.942 327.057 187.942 327.249C188.194 326.841 188.566 326.499 189.058 326.223C189.55 325.935 190.072 325.791 190.624 325.791C191.284 325.791 191.854 325.929 192.334 326.205C192.814 326.469 193.18 326.865 193.432 327.393C193.696 327.921 193.828 328.551 193.828 329.283V334.755H192.28V329.481C192.28 328.641 192.13 328.023 191.83 327.627C191.53 327.219 191.044 327.015 190.372 327.015C189.88 327.015 189.448 327.129 189.076 327.357C188.716 327.585 188.44 327.891 188.248 328.275C188.056 328.659 187.96 329.079 187.96 329.535V334.755H186.412V326.079Z" fill="#0F0D0B"></path>
<rect x="72" y="351.306" width="425" height="14" rx="2" fill="#E6E5E3"></rect>
<rect x="72" y="371.306" width="350.2" height="14" rx="2" fill="#E6E5E3"></rect>
<path d="M214.43 76.2H218.414L226.31 89.688C226.278 89.016 226.262 88.248 226.262 87.384V76.2H228.926V93H225.35L217.022 78.792C217.054 79.448 217.07 80.184 217.07 81V93H214.43V76.2ZM237.269 93.384C236.101 93.384 235.085 93.144 234.221 92.664C233.357 92.168 232.685 91.456 232.205 90.528C231.725 89.6 231.485 88.472 231.485 87.144C231.485 85.96 231.725 84.904 232.205 83.976C232.701 83.032 233.381 82.296 234.245 81.768C235.109 81.24 236.077 80.976 237.149 80.976C238.301 80.976 239.285 81.232 240.101 81.744C240.933 82.256 241.565 82.984 241.997 83.928C242.429 84.856 242.645 85.944 242.645 87.192V87.72H234.005C234.005 88.472 234.149 89.128 234.437 89.688C234.725 90.248 235.109 90.68 235.589 90.984C236.085 91.288 236.645 91.44 237.269 91.44C238.005 91.44 238.621 91.264 239.117 90.912C239.629 90.56 239.941 90.024 240.053 89.304H242.549C242.469 90.072 242.213 90.768 241.781 91.392C241.349 92 240.741 92.488 239.957 92.856C239.189 93.208 238.293 93.384 237.269 93.384ZM240.053 85.944C240.037 85.016 239.773 84.272 239.261 83.712C238.749 83.152 238.045 82.872 237.149 82.872C236.285 82.872 235.565 83.168 234.989 83.76C234.429 84.336 234.109 85.064 234.029 85.944H240.053ZM250.107 93.384C248.939 93.384 247.923 93.144 247.059 92.664C246.195 92.168 245.523 91.456 245.043 90.528C244.563 89.6 244.323 88.472 244.323 87.144C244.323 85.96 244.563 84.904 245.043 83.976C245.539 83.032 246.219 82.296 247.083 81.768C247.947 81.24 248.915 80.976 249.987 80.976C251.139 80.976 252.123 81.232 252.939 81.744C253.771 82.256 254.403 82.984 254.835 83.928C255.267 84.856 255.483 85.944 255.483 87.192V87.72H246.843C246.843 88.472 246.987 89.128 247.275 89.688C247.563 90.248 247.947 90.68 248.427 90.984C248.923 91.288 249.483 91.44 250.107 91.44C250.843 91.44 251.459 91.264 251.955 90.912C252.467 90.56 252.779 90.024 252.891 89.304H255.387C255.307 90.072 255.051 90.768 254.619 91.392C254.187 92 253.579 92.488 252.795 92.856C252.027 93.208 251.131 93.384 250.107 93.384ZM252.891 85.944C252.875 85.016 252.611 84.272 252.099 83.712C251.587 83.152 250.883 82.872 249.987 82.872C249.123 82.872 248.403 83.168 247.827 83.76C247.267 84.336 246.947 85.064 246.867 85.944H252.891ZM262.513 93.384C261.473 93.384 260.553 93.152 259.753 92.688C258.953 92.208 258.321 91.504 257.857 90.576C257.393 89.632 257.161 88.512 257.161 87.216C257.161 85.952 257.393 84.856 257.857 83.928C258.337 82.984 258.985 82.256 259.801 81.744C260.617 81.232 261.537 80.976 262.561 80.976C263.425 80.976 264.169 81.168 264.793 81.552C265.417 81.936 265.897 82.416 266.233 82.992C266.201 82.672 266.185 82.32 266.185 81.936V76.2H268.657V93H266.185V92.424C266.185 92.024 266.201 91.68 266.233 91.392C265.929 91.952 265.449 92.424 264.793 92.808C264.153 93.192 263.393 93.384 262.513 93.384ZM263.017 91.44C263.657 91.44 264.225 91.264 264.721 90.912C265.233 90.56 265.625 90.064 265.897 89.424C266.185 88.768 266.329 88.024 266.329 87.192C266.329 85.912 266.025 84.888 265.417 84.12C264.809 83.336 264.009 82.944 263.017 82.944C262.393 82.944 261.825 83.128 261.313 83.496C260.817 83.848 260.425 84.344 260.137 84.984C259.849 85.624 259.705 86.36 259.705 87.192C259.705 88.04 259.841 88.784 260.113 89.424C260.401 90.064 260.793 90.56 261.289 90.912C261.801 91.264 262.377 91.44 263.017 91.44ZM276.071 93.384C275.015 93.384 274.095 93.208 273.311 92.856C272.543 92.504 271.943 92.008 271.511 91.368C271.095 90.712 270.863 89.952 270.815 89.088H273.311C273.343 89.84 273.591 90.432 274.055 90.864C274.535 91.296 275.199 91.512 276.047 91.512C276.767 91.512 277.351 91.36 277.799 91.056C278.247 90.736 278.471 90.32 278.471 89.808C278.471 89.376 278.311 89.032 277.991 88.776C277.671 88.52 277.175 88.328 276.503 88.2L274.895 87.888C273.727 87.664 272.823 87.264 272.183 86.688C271.543 86.112 271.223 85.368 271.223 84.456C271.223 83.8 271.415 83.208 271.799 82.68C272.199 82.152 272.751 81.736 273.455 81.432C274.159 81.128 274.959 80.976 275.855 80.976C276.847 80.976 277.703 81.136 278.423 81.456C279.143 81.776 279.703 82.224 280.103 82.8C280.503 83.376 280.719 84.064 280.751 84.864H278.279C278.215 84.24 277.959 83.752 277.511 83.4C277.079 83.048 276.503 82.872 275.783 82.872C275.159 82.872 274.655 83.008 274.271 83.28C273.887 83.536 273.695 83.888 273.695 84.336C273.695 84.752 273.839 85.072 274.127 85.296C274.431 85.52 274.935 85.704 275.639 85.848L277.247 86.16C278.415 86.384 279.319 86.776 279.959 87.336C280.599 87.896 280.919 88.656 280.919 89.616C280.919 90.32 280.719 90.96 280.319 91.536C279.919 92.112 279.351 92.568 278.615 92.904C277.895 93.224 277.047 93.384 276.071 93.384ZM288.379 81.36H290.875V82.056C290.875 82.504 290.859 82.944 290.827 83.376C291.147 82.656 291.603 82.08 292.195 81.648C292.803 81.2 293.523 80.976 294.355 80.976C294.579 80.976 294.771 80.992 294.931 81.024V83.448C294.691 83.4 294.443 83.376 294.187 83.376C293.499 83.376 292.907 83.504 292.411 83.76C291.915 84.016 291.531 84.416 291.259 84.96C291.003 85.504 290.875 86.192 290.875 87.024V93H288.379V81.36ZM301.477 93.384C300.309 93.384 299.293 93.144 298.429 92.664C297.565 92.168 296.893 91.456 296.413 90.528C295.933 89.6 295.693 88.472 295.693 87.144C295.693 85.96 295.933 84.904 296.413 83.976C296.909 83.032 297.589 82.296 298.453 81.768C299.317 81.24 300.285 80.976 301.357 80.976C302.509 80.976 303.493 81.232 304.309 81.744C305.141 82.256 305.773 82.984 306.205 83.928C306.637 84.856 306.853 85.944 306.853 87.192V87.72H298.213C298.213 88.472 298.357 89.128 298.645 89.688C298.933 90.248 299.317 90.68 299.797 90.984C300.293 91.288 300.853 91.44 301.477 91.44C302.213 91.44 302.829 91.264 303.325 90.912C303.837 90.56 304.149 90.024 304.261 89.304H306.757C306.677 90.072 306.421 90.768 305.989 91.392C305.557 92 304.949 92.488 304.165 92.856C303.397 93.208 302.501 93.384 301.477 93.384ZM304.261 85.944C304.245 85.016 303.981 84.272 303.469 83.712C302.957 83.152 302.253 82.872 301.357 82.872C300.493 82.872 299.773 83.168 299.197 83.76C298.637 84.336 298.317 85.064 298.237 85.944H304.261ZM307.601 81.36H310.289L313.049 89.424C313.177 89.76 313.313 90.2 313.457 90.744C313.569 90.312 313.697 89.872 313.841 89.424L316.553 81.36H319.145L314.801 93H312.017L307.601 81.36ZM320.823 81.36H323.319V93H320.823V81.36ZM320.823 90.984H323.319V93H320.823V90.984ZM320.823 81.36H322.071V83.376H320.823V81.36ZM320.703 76.608H323.415V79.368H320.703V76.608ZM331.437 93.384C330.269 93.384 329.253 93.144 328.389 92.664C327.525 92.168 326.853 91.456 326.373 90.528C325.893 89.6 325.653 88.472 325.653 87.144C325.653 85.96 325.893 84.904 326.373 83.976C326.869 83.032 327.549 82.296 328.413 81.768C329.277 81.24 330.245 80.976 331.317 80.976C332.469 80.976 333.453 81.232 334.269 81.744C335.101 82.256 335.733 82.984 336.165 83.928C336.597 84.856 336.813 85.944 336.813 87.192V87.72H328.173C328.173 88.472 328.317 89.128 328.605 89.688C328.893 90.248 329.277 90.68 329.757 90.984C330.253 91.288 330.813 91.44 331.437 91.44C332.173 91.44 332.789 91.264 333.285 90.912C333.797 90.56 334.109 90.024 334.221 89.304H336.717C336.637 90.072 336.381 90.768 335.949 91.392C335.517 92 334.909 92.488 334.125 92.856C333.357 93.208 332.461 93.384 331.437 93.384ZM334.221 85.944C334.205 85.016 333.941 84.272 333.429 83.712C332.917 83.152 332.213 82.872 331.317 82.872C330.453 82.872 329.733 83.168 329.157 83.76C328.597 84.336 328.277 85.064 328.197 85.944H334.221ZM337.702 81.36H340.318L342.646 89.616C342.758 90.08 342.838 90.456 342.886 90.744C343.046 90.184 343.15 89.808 343.198 89.616L345.43 81.36H348.646L350.974 89.616C350.99 89.696 351.006 89.776 351.022 89.856C351.118 90.256 351.182 90.544 351.214 90.72C351.278 90.496 351.334 90.272 351.382 90.048C351.43 89.888 351.47 89.736 351.502 89.592L353.806 81.36H356.254L352.678 93H349.678L347.326 84.624C347.214 84.112 347.126 83.728 347.062 83.472C347.03 83.616 346.99 83.792 346.942 84C346.91 84.128 346.878 84.24 346.846 84.336C346.83 84.416 346.806 84.512 346.774 84.624L344.422 93H341.374L337.702 81.36Z" fill="#0F0E0D"></path>
<line x1="48" y1="120.5" x2="521" y2="120.5" stroke="#E6E5E3"></line>
<circle cx="88" cy="85" r="8" fill="#D9D9D9"></circle>
<circle cx="88" cy="85" r="8" fill="#EAB308"></circle>
<rect x="569" y="543" width="569" height="64" transform="rotate(-180 569 543)" fill="url(#paint0_linear_392_2473)"></rect>
</g>
<defs>
<linearGradient id="paint0_linear_392_2473" x1="854" y1="607" x2="854" y2="543" gradientUnits="userSpaceOnUse">
<stop stop-color="#CED8D9" stop-opacity="0"></stop>
<stop offset="1" stop-color="#CED8D9"></stop>
</linearGradient>
<clipPath id="clip0_392_2473">
<path d="M0 0H565C567.209 0 569 1.79086 569 4V539C569 541.209 567.209 543 565 543H0V0Z" fill="white"></path>
</clipPath>
</defs>
</svg>
